<?xml version="1.0" encoding="UTF-8" standalone="no"?>
<!-- Created with Inkscape (http://www.inkscape.org/) -->

<svg
   xmlns:dc="http://purl.org/dc/elements/1.1/"
   xmlns:cc="http://creativecommons.org/ns#"
   xmlns:rdf="http://www.w3.org/1999/02/22-rdf-syntax-ns#"
   xmlns:svg="http://www.w3.org/2000/svg"
   xmlns="http://www.w3.org/2000/svg"
   xmlns:sodipodi="http://sodipodi.sourceforge.net/DTD/sodipodi-0.dtd"
   xmlns:inkscape="http://www.inkscape.org/namespaces/inkscape"
   width="682.6535"
   height="683.61023"
   id="svg3302"
   version="1.1"
   inkscape:version="0.48.5 r10040"
   sodipodi:docname="New document 2">
  <defs
     id="defs3">
    <linearGradient
       id="id12"
       gradientUnits="userSpaceOnUse"
       x1="2202.3301"
       y1="3969.48"
       x2="6364.8701"
       y2="4159.1401">
      <stop
         offset="0"
         style="stop-color:#FEC64F"
         id="stop51" />
      <stop
         offset="1"
         style="stop-color:#E47937"
         id="stop53" />
    </linearGradient>
    <linearGradient
       id="id13"
       gradientUnits="userSpaceOnUse"
       x1="7163.7798"
       y1="8260.5303"
       x2="2293.02"
       y2="8038.6001">
      <stop
         offset="0"
         style="stop-color:#086FB1"
         id="stop56" />
      <stop
         offset="1"
         style="stop-color:#28343E"
         id="stop58" />
    </linearGradient>
    <linearGradient
       id="id15"
       gradientUnits="userSpaceOnUse"
       x1="647.26398"
       y1="4249.3701"
       x2="5331.6802"
       y2="4462.8101">
      <stop
         offset="0"
         style="stop-color:#F8A047"
         id="stop66" />
      <stop
         offset="1"
         style="stop-color:#F05836"
         id="stop68" />
    </linearGradient>
    <linearGradient
       id="id18"
       gradientUnits="userSpaceOnUse"
       x1="6573.98"
       y1="3587.3701"
       x2="5164.9502"
       y2="9451.1299">
      <stop
         offset="0"
         style="stop-color:#51B9E4"
         id="stop81" />
      <stop
         offset="0.25098"
         style="stop-color:#52B8E3"
         id="stop83" />
      <stop
         offset="0.709804"
         style="stop-color:#205C80"
         id="stop85" />
      <stop
         offset="1"
         style="stop-color:#205C80"
         id="stop87" />
    </linearGradient>
    <linearGradient
       id="id14"
       gradientUnits="userSpaceOnUse"
       x1="6464.1099"
       y1="2792.6001"
       x2="6282.9502"
       y2="7501.54">
      <stop
         offset="0"
         style="stop-color:#51C5D6"
         id="stop61" />
      <stop
         offset="1"
         style="stop-color:#0B737D"
         id="stop63" />
    </linearGradient>
    <linearGradient
       id="id16"
       gradientUnits="userSpaceOnUse"
       x1="258.134"
       y1="8134.7998"
       x2="3643.1699"
       y2="4162.0801">
      <stop
         offset="0"
         style="stop-color:#EF4657"
         id="stop71" />
      <stop
         offset="1"
         style="stop-color:#A73234"
         id="stop73" />
    </linearGradient>
    <linearGradient
       id="id17"
       gradientUnits="userSpaceOnUse"
       x1="2964.6899"
       y1="9274.71"
       x2="3122.6499"
       y2="5169.1001">
      <stop
         offset="0"
         style="stop-color:#933153"
         id="stop76" />
      <stop
         offset="1"
         style="stop-color:#5F2B2F"
         id="stop78" />
    </linearGradient>
  </defs>
  <sodipodi:namedview
     inkscape:document-units="mm"
     id="base"
     pagecolor="#ffffff"
     bordercolor="#666666"
     borderopacity="1.0"
     inkscape:pageopacity="0.0"
     inkscape:pageshadow="2"
     inkscape:zoom="0.35"
     inkscape:cx="350"
     inkscape:cy="520"
     inkscape:current-layer="layer1"
     showgrid="false"
     units="mm"
     inkscape:window-width="1920"
     inkscape:window-height="1017"
     inkscape:window-x="1358"
     inkscape:window-y="-8"
     inkscape:window-maximized="1" />
  <metadata
     id="metadata4">
    <rdf:RDF>
      <cc:Work
         rdf:about="">
        <dc:format>image/svg+xml</dc:format>
        <dc:type
           rdf:resource="http://purl.org/dc/dcmitype/StillImage" />
        <dc:title></dc:title>
      </cc:Work>
    </rdf:RDF>
  </metadata>
  <g
     inkscape:label="Layer 1"
     inkscape:groupmode="layer"
     id="layer1"
     transform="translate(0,-368.75126)">
    <g
       transform="matrix(0.08999696,0,0,0.08999696,-27.787446,183.3233)"
       style="fill-rule:evenodd"
       id="_431921376">
      <path
         inkscape:connector-curvature="0"
         style="fill:url(#id12)"
         id="path137"
         d="M 2273,3035 3811,2441 C 5166,1918 6593,4065 6227,5855 5972,4226 4106,2939 2273,3035 z"
         class="fil0" />
      <path
         inkscape:connector-curvature="0"
         style="fill:url(#id13)"
         id="path139"
         d="M 7161,7817 6055,8989 c -903,957 -3180,-196 -3697,-2111 580,963 2041,1437 3363,1366 518,-28 1013,-205 1439,-427 z"
         class="fil1" />
      <path
         inkscape:connector-curvature="0"
         style="fill:url(#id15)"
         id="path141"
         d="M 601,5464 1013,3999 C 1402,2616 4135,2964 5335,4383 4813,4042 4129,3944 3434,3998 2356,4083 1241,4581 602,5464 z"
         class="fil2" />
      <path
         inkscape:connector-curvature="0"
         style="fill:url(#id18)"
         id="path143"
         d="m 7550,4920 306,1553 c 141,715 -578,1322 -1488,1570 -831,226 -1816,141 -2560,-202 786,139 1666,-174 2389,-741 683,-535 1227,-1294 1353,-2180 z"
         class="fil3" />
      <path
         inkscape:connector-curvature="0"
         style="fill:url(#id14)"
         id="path145"
         d="M 5377,2783 C 6668,4049 6691,6301 5527,7426 6272,7055 7016,6286 7325,5467 7610,4713 7520,3906 6869,3565 L 5377,2783 z"
         class="fil4" />
      <path
         inkscape:connector-curvature="0"
         style="fill:url(#id16)"
         id="path147"
         d="M 3580,4076 C 1957,4571 1017,6755 1579,8279 L 641,7075 C -279,5894 1530,4072 3581,4077 z"
         class="fil5" />
      <path
         inkscape:connector-curvature="0"
         style="fill:url(#id17)"
         id="path149"
         d="m 2241,5170 c -471,965 151,3386 2266,4134 L 2838,9212 C 1541,9141 905,6909 2241,5170 z"
         class="fil6" />
    </g>
    <polygon
       transform="matrix(0.08999696,0,0,0.08999696,-27.787446,183.3233)"
       style="fill:#fefefe;fill-rule:nonzero"
       id="polygon297"
       points="3919,2861 3919,3087 3987,3087 3987,2861 "
       class="fil14" />
    <path
       style="fill:#fefefe;fill-rule:nonzero"
       inkscape:connector-curvature="0"
       id="path299"
       d="m 564.48255,590.10956 1.88993,-3.41988 c 0.26999,-0.53998 0.53999,-0.98997 0.80998,-1.52995 0.26999,-0.44998 0.44998,-0.98997 0.53998,-1.52995 0.17999,-0.53998 0.17999,-1.07996 0.17999,-1.61994 0,-0.89997 -0.17999,-1.79994 -0.53998,-2.60991 -0.35999,-0.80998 -0.80997,-1.52995 -1.52995,-2.15993 -0.62998,-0.62998 -1.43995,-1.16996 -2.24992,-1.52995 -0.89997,-0.35999 -1.88994,-0.53998 -2.9699,-0.53998 -1.07997,0 -2.15993,0.17999 -3.0599,0.53998 -0.89997,0.35999 -1.70994,0.89997 -2.33992,1.52995 -0.62998,0.62998 -1.16996,1.43995 -1.52995,2.33992 -0.35999,0.89997 -0.53998,1.79994 -0.53998,2.8799 0,1.34996 0.26999,2.51992 0.89997,3.41989 0.62998,0.98996 1.43995,1.70994 2.60991,2.33992 l 2.60991,-4.40985 c -0.26999,-0.18 -0.44998,-0.35999 -0.53998,-0.53999 -0.09,-0.17999 -0.17999,-0.44998 -0.17999,-0.71997 0,-0.35999 0.09,-0.62998 0.26999,-0.89997 0.17999,-0.26999 0.35999,-0.44999 0.62998,-0.62998 0.26999,-0.17999 0.53998,-0.26999 0.89997,-0.26999 0.62998,0 1.07996,0.17999 1.34995,0.44998 0.26999,0.27 0.44999,0.71998 0.44999,1.25996 0,0.26999 0,0.53998 -0.09,0.71998 -0.09,0.26999 -0.09,0.44998 -0.17999,0.53998 l -7.28976,12.23959 13.31955,0 0,-5.84981 -3.41988,0 z"
       class="fil14" />
    <path
       style="fill:#fefefe;fill-rule:nonzero"
       inkscape:connector-curvature="0"
       id="path301"
       d="m 565.8325,837.15122 c 0.62998,0.17999 1.25996,0.35999 1.88994,0.44998 0.62998,0.09 1.25996,0.18 1.88993,0.18 1.34996,0 2.51992,-0.18 3.59988,-0.53998 1.07997,-0.35999 1.97994,-0.80998 2.69991,-1.43996 0.71998,-0.62997 1.25996,-1.34995 1.70994,-2.24992 0.35999,-0.80997 0.53999,-1.79994 0.62998,-2.78991 0,-1.52994 -0.35999,-2.8799 -0.98996,-3.86986 -0.62998,-0.98997 -1.61995,-1.70995 -2.78991,-2.06994 l 3.77987,-7.91973 -12.32958,0 0,5.8498 3.59988,0 -2.42992,4.58985 c 0.26999,-0.09 0.53998,-0.09 0.80997,-0.09 0.26999,0 0.44999,0 0.71998,0 0.62998,0 1.25996,0.09 1.70994,0.35999 0.44998,0.17999 0.89997,0.53998 1.16996,0.89997 0.26999,0.35999 0.35999,0.80997 0.44999,1.34995 0,0.44999 -0.09,0.89997 -0.35999,1.25996 -0.26999,0.35999 -0.53998,0.62998 -0.98997,0.89997 -0.44998,0.18 -0.98997,0.26999 -1.52995,0.35999 -0.44998,0 -0.98996,-0.09 -1.52995,-0.17999 -0.53998,-0.18 -1.07996,-0.35999 -1.61994,-0.62998 l 0,5.8498 z"
       class="fil14" />
    <polygon
       transform="matrix(0.08999696,0,0,0.08999696,-27.787446,183.3233)"
       style="fill:#fefefe;fill-rule:nonzero"
       id="polygon303"
       points="4564,8975 4623,8975 4623,8748 4527,8748 4459,8908 4552,8908 4552,8865 4531,8865 4564,8786 "
       class="fil14" />
    <path
       style="fill:#fefefe;fill-rule:nonzero"
       inkscape:connector-curvature="0"
       id="path305"
       d="m 156.61632,951.26739 c 0.80998,0.36 1.61995,0.6299 2.42992,0.8099 0.80998,0.18 1.61995,0.27 2.42992,0.27 1.25996,0 2.42992,-0.18 3.50988,-0.5399 1.07997,-0.36 1.97994,-0.81 2.69991,-1.53 0.80997,-0.63 1.34996,-1.4399 1.79994,-2.2499 0.44999,-0.9 0.62998,-1.8 0.62998,-2.87992 0,-0.98997 -0.17999,-1.79994 -0.44999,-2.60991 -0.35998,-0.80997 -0.80997,-1.52995 -1.34995,-2.06993 -0.62998,-0.62998 -1.34995,-1.07996 -2.15993,-1.43995 -0.89997,-0.35999 -1.79994,-0.53998 -2.8799,-0.62998 l 0.26999,-0.98997 5.9398,0 0,-5.8498 -10.25965,0 -2.42992,10.61964 c 0.53998,-0.09 1.07996,-0.17999 1.52995,-0.26999 0.44998,-0.09 0.98996,-0.09 1.43995,-0.09 0.89997,0 1.70994,0.09 2.33992,0.35999 0.62998,0.26999 1.16996,0.53998 1.52995,0.98997 0.35999,0.44998 0.53998,0.89997 0.53998,1.43995 0,0.44998 -0.17999,0.89997 -0.44999,1.26 -0.26999,0.3599 -0.62997,0.7199 -1.16996,0.8999 -0.53998,0.18 -1.07996,0.36 -1.79993,0.36 -0.53999,0 -1.16997,-0.09 -1.79994,-0.27 -0.62998,-0.18 -1.34996,-0.36 -2.15993,-0.63 l 0,5.0399 z"
       class="fil14" />
    <path
       style="fill:#fefefe;fill-rule:nonzero"
       inkscape:connector-curvature="0"
       id="path307"
       d="m 61.399541,794.67265 -3.779872,8.63971 c -0.269991,0.53998 -0.449985,1.07997 -0.629979,1.61995 -0.179994,0.53998 -0.359988,1.16996 -0.539982,1.70994 -0.09,0.62998 -0.179993,1.25996 -0.179993,2.06993 0,1.07996 0.179993,1.97993 0.539981,2.8799 0.359988,0.89997 0.89997,1.61995 1.529949,2.24993 0.629978,0.62997 1.439951,1.16996 2.339921,1.52994 0.899969,0.35999 1.799939,0.53999 2.879902,0.53999 1.079964,0 2.06993,-0.18 2.9699,-0.53999 0.89997,-0.35998 1.709942,-0.89997 2.429918,-1.61994 0.719976,-0.71998 1.259957,-1.52995 1.619945,-2.42992 0.359988,-0.89997 0.539982,-1.97993 0.539982,-3.0599 0,-1.79993 -0.449985,-3.23989 -1.349954,-4.40985 -0.89997,-1.16996 -2.249924,-2.06993 -4.049864,-2.69991 l -2.249924,5.48982 0.09,0 c 0.629979,0 1.169961,0.17999 1.439952,0.44998 0.359987,0.35999 0.449984,0.80998 0.449984,1.43996 0,0.35998 -0.09,0.62997 -0.179993,0.89996 -0.179994,0.27 -0.359988,0.44999 -0.629979,0.62998 -0.269991,0.18 -0.539982,0.18 -0.89997,0.18 -0.539982,0 -0.989966,-0.18 -1.349954,-0.53998 -0.359988,-0.35999 -0.449985,-0.80998 -0.449985,-1.34996 0,-0.26999 0.09,-0.62998 0.179994,-0.89997 0.09,-0.26999 0.179994,-0.62998 0.359988,-0.89997 l 4.319854,-9.89966 -5.309821,-1.97994 z"
       class="fil14" />
    <polygon
       transform="matrix(0.08999696,0,0,0.08999696,-27.787446,183.3233)"
       style="fill:#fefefe;fill-rule:nonzero"
       id="polygon309"
       points="1543,3887 1612,3887 1682,3660 1519,3660 1519,3725 1598,3725 "
       class="fil14" />
    <g
       transform="matrix(0.08999696,0,0,0.08999696,-27.787446,183.3233)"
       style="fill-rule:evenodd"
       id="_431870568">
      <path
         style="fill:#fefefe"
         inkscape:connector-curvature="0"
         id="path312"
         d="m 4126,2695 685,0 0,577 -685,0 0,-577 z m 27,28 630,0 0,520 -630,0 0,-520 z"
         class="fil9" />
      <path
         style="fill:#fefefe"
         inkscape:connector-curvature="0"
         id="path314"
         d="m 4219,2947 31,0 0,-56 -32,0 c -4,0 -7,-3 -7,-7 l 0,-79 c 0,-4 3,-7 7,-7 l 83,0 c 4,0 7,3 7,7 l 0,79 c 0,4 -3,7 -7,7 l -31,0 0,56 116,0 0,-56 -29,0 c -4,0 -7,-3 -7,-7 l 0,-79 c 0,-4 3,-7 7,-7 l 83,0 c 4,0 7,3 7,7 l 0,79 c 0,4 -3,7 -7,7 l -34,0 0,56 121,0 0,-56 -31,0 c -4,0 -7,-3 -7,-7 l 0,-79 c 0,-4 3,-7 7,-7 l 83,0 c 4,0 7,3 7,7 l 0,79 c 0,4 -3,7 -7,7 l -32,0 0,56 118,0 0,-56 -31,0 c -4,0 -7,-3 -7,-7 l 0,-79 c 0,-4 3,-7 7,-7 l 83,0 c 4,0 7,3 7,7 l 0,79 c 0,4 -3,7 -7,7 l -31,0 0,56 34,0 c 5,0 8,4 8,8 l 0,93 c 0,5 -4,8 -8,8 l -34,0 0,55 c 12,3 20,14 20,27 0,16 -13,28 -28,28 -16,0 -28,-13 -28,-28 0,-11 7,-21 16,-25 l 0,-56 -118,0 0,55 c 11,4 20,14 20,27 0,16 -13,28 -28,28 -16,0 -28,-13 -28,-28 0,-11 7,-21 17,-26 l 0,-56 -121,0 0,55 c 11,4 18,14 18,26 0,16 -13,28 -28,28 -16,0 -28,-13 -28,-28 0,-12 7,-22 18,-26 l 0,-56 -116,0 0,55 c 11,4 18,14 18,26 0,16 -13,28 -28,28 -16,0 -28,-13 -28,-28 0,-12 7,-22 18,-26 l 0,-56 -31,0 c -5,0 -8,-4 -8,-8 l 0,-93 c 0,-5 4,-8 8,-8 z"
         class="fil9" />
    </g>
    <path
       style="fill:#fefefe;fill-rule:evenodd"
       inkscape:connector-curvature="0"
       id="path316"
       d="m 622.62058,574.0901 c -3.32988,-0.62997 -3.14989,-2.60991 -2.8799,-6.11979 3.68988,0.09 2.8799,2.9699 2.8799,6.11979 z m -37.25874,-17.7294 16.37945,0 c 1.07996,0 1.97993,0.89997 1.97993,1.97994 l 0,13.67953 c 0,1.07997 -0.89997,1.97994 -1.97993,1.97994 l -16.37945,0 c -1.07996,0 -1.97993,-0.89997 -1.97993,-1.97994 l 0,-13.67953 c 0,-1.07997 0.89997,-1.97994 1.97993,-1.97994 z m -0.09,-4.22985 16.73943,0 c 3.32989,0 6.0298,2.6999 6.0298,6.02979 l 0,21.05929 0,1.25996 c 3.68987,0 7.19975,-0.35999 9.17969,2.15993 2.06993,2.6999 1.43995,7.10976 1.43995,11.06962 l 0,18.53938 c 0,2.42991 0.26999,3.50988 1.97993,4.31985 1.70994,0.80997 6.56978,0.80997 5.39982,-5.57981 -1.16996,-6.29979 -3.23989,-15.65947 -3.0599,-21.77927 0.18,-4.13986 0.26999,-8.27972 0.35999,-12.50957 -8.00973,-0.09 -6.38978,-5.84981 -6.29979,-11.9696 0,-1.61994 -0.44998,-1.70994 -1.16996,-2.51991 -0.62998,-0.62998 -1.07996,-1.25996 -1.70994,-1.88994 -1.52995,-1.52995 -1.25996,-1.61995 -1.79994,-2.15993 0.44999,-0.80997 1.43995,-1.61994 2.33992,-1.88993 2.8799,2.60991 5.75981,5.6698 8.54971,8.45971 4.40985,4.31985 3.32989,6.20979 3.32989,14.03953 0,18.89936 0,13.85953 3.0599,31.58893 0.44998,2.8799 0.98996,4.76984 -0.71998,7.01976 -3.14989,3.95987 -8.63971,4.22986 -11.7896,0.98997 -1.79994,-1.88994 -1.97993,-3.50988 -1.97993,-6.83977 0,-2.15993 0.17999,-24.74916 -0.18,-25.82913 -0.71997,-1.88993 -4.22985,-1.52995 -6.65977,-1.43995 l 0,29.87899 0,6.0298 -6.0298,0 -16.73943,0 -6.0298,0 0,-6.0298 0,-34.91882 0,-21.05929 c 0,-3.32989 2.69991,-6.02979 6.0298,-6.02979 z"
       class="fil9" />
    <path
       style="fill:#fefefe;fill-rule:evenodd"
       inkscape:connector-curvature="0"
       id="path318"
       d="m 615.33083,801.15243 c 1.34995,0.09 2.60991,0.27 3.95987,0.53999 l 0,-7.46975 3.68987,0 0,8.54971 c 10.34965,3.77987 17.8194,13.76953 17.8194,25.46914 0,14.93949 -12.14959,27.08908 -27.08909,27.08908 -14.93949,0 -27.08908,-12.14959 -27.08908,-27.08908 0,-11.69961 7.37975,-21.59927 17.7294,-25.46914 l 0,-8.54971 3.68988,0 0,7.46975 c 1.25995,-0.26999 2.42991,-0.44999 3.77987,-0.53999 l 0,-9.71967 -4.76984,0 -2.60991,0 0,-2.60991 0,-3.0599 0,-1.88993 c 0,-1.43995 1.16996,-2.60991 2.60991,-2.60991 l 13.49954,0 c 1.43996,0 2.60992,1.16996 2.60992,2.60991 l 0,1.88993 0,3.0599 0,2.60991 -2.60992,0 -5.03983,0 0,9.71967 z m 0,3.77988 0,28.97902 c 0,0.98996 -0.80997,1.88993 -1.88994,1.88993 l 0,0 c -0.98996,0 -1.88993,-0.80997 -1.88993,-1.88993 l 0,-28.97902 c -10.07966,0.80997 -18.35938,8.09972 -20.6993,17.7294 l 17.7294,0 0,3.68987 -18.35938,0 c -0.09,0.62998 -0.09,1.16996 -0.09,1.79994 0,0.62998 0,1.16996 0.09,1.70994 l 18.35938,0 0,3.68988 -17.7294,0 c 0.26999,1.25996 0.71997,2.42992 1.16996,3.59988 l 43.01854,0 c 0.44999,-1.16996 0.89997,-2.33992 1.16996,-3.59988 l -17.99939,0 0,-3.68988 18.62937,0 c 0,-0.53998 0.09,-1.16996 0.09,-1.70994 0,-0.62998 0,-1.16996 -0.09,-1.79994 l -18.62937,0 0,-3.68987 17.99939,0 c -2.33992,-9.71967 -10.70963,-17.00943 -20.96929,-17.7294 z m -18.35938,39.50866 33.38887,0 c 1.07997,-1.07996 1.97994,-2.24992 2.87991,-3.50988 l -39.05869,0 c 0.80998,1.25996 1.79994,2.42992 2.87991,3.50988 z m 28.70903,3.68988 -24.02919,0 c 3.50988,2.06993 7.64974,3.32989 11.9696,3.32989 4.40985,0 8.45971,-1.16997 11.96959,-3.32989 z"
       class="fil9" />
    <path
       style="fill:#fefefe;fill-rule:evenodd"
       inkscape:connector-curvature="0"
       id="path320"
       d="m 421.11739,942.80765 c -9.62967,0.71998 -18.89936,3.95984 -25.82913,9.89964 -1.07996,0.9 -2.24992,1.8 -3.05989,2.7899 -2.33992,2.6099 -0.18,6.8398 3.41988,6.4798 1.88994,-0.27 2.51992,-1.4399 3.59988,-2.2499 2.7899,-2.1599 3.68987,-3.0599 7.10976,-4.8599 11.6996,-6.2097 26.36911,-5.3998 37.34874,1.8 1.16996,0.81 2.42992,1.6199 3.41988,2.5199 0.35999,0.27 0.53998,0.36 0.80997,0.63 0.80998,0.72 1.52995,1.6199 2.60992,1.9799 3.77987,1.35 7.73973,-3.5099 3.32988,-7.1997 -1.88993,-1.62 -2.42991,-2.25 -4.94983,-3.9599 -8.00973,-5.21983 -17.54941,-8.63971 -27.80906,-7.82974 z m 0.17999,13.22954 c -5.12982,0.45 -9.98966,1.8899 -13.58954,4.1399 -2.42991,1.5299 -3.05989,1.8899 -5.12982,3.6898 -1.34996,1.17 -3.59988,2.9699 -2.15993,5.8498 0.89997,1.89 3.68987,2.9699 5.9398,1.35 1.34995,-0.9 1.79994,-1.9799 5.03983,-3.8699 8.54971,-5.1298 19.07935,-4.3198 26.90909,1.8 1.70994,1.2599 3.0599,3.5099 5.8498,2.7899 1.97994,-0.54 3.86987,-3.1499 2.42992,-5.6698 -1.52995,-2.6999 -7.28975,-6.0298 -10.25965,-7.4698 -3.86987,-1.8899 -9.98967,-2.9699 -15.0295,-2.6099 z m -0.09,13.3196 c -4.40985,0.6299 -8.9097,2.7899 -11.51961,6.0298 -2.24993,2.7899 -0.26999,6.65971 3.23989,6.47971 1.88993,-0.09 2.7899,-1.4399 3.68987,-2.15991 2.15993,-1.7999 5.30982,-3.0599 8.9997,-2.3399 4.40985,0.9 5.30982,3.59991 7.37975,4.31981 3.32989,1.17 6.47978,-2.42991 4.67984,-5.57981 -0.98997,-1.7999 -4.13986,-4.0498 -6.56978,-5.1298 -2.7899,-1.26 -6.38978,-2.0699 -9.98966,-1.5299 z m 1.25995,13.94951 c -4.22985,0.63 -8.00972,4.1398 -7.10976,9.0897 0.71998,3.9598 4.76984,7.1997 9.62968,6.5698 4.13986,-0.63 8.00973,-4.2299 7.10976,-9.0897 -0.71998,-3.9599 -4.76984,-7.1998 -9.62968,-6.5698 z"
       class="fil9" />
    <path
       style="fill:#fefefe;fill-rule:evenodd"
       inkscape:connector-curvature="0"
       id="path322"
       d="m 238.87355,955.94719 c 5.39981,2.2499 9.26968,7.6498 9.26968,13.8595 0,8.0098 -6.20979,14.57961 -14.12952,15.02951 l 0,0 -0.98997,0 -18.35938,0 0,-14.39951 8.9997,0 c 2.8799,0 2.24992,-1.6199 1.34995,-2.6999 l -12.68957,-15.2995 c -1.16996,-1.4399 -3.05989,-1.3499 -4.22985,0 l -12.50958,15.2995 c -0.80997,0.99 -1.97993,2.6999 0.89997,2.6999 l 9.26969,0 0,14.39951 -18.08939,0 0,0 -0.09,0 c -8.36972,0 -15.11949,-6.74971 -15.11949,-15.11951 0,-5.4898 2.9699,-10.2596 7.28975,-12.9595 -0.26999,-0.99 -0.44998,-2.0699 -0.44998,-3.1499 0,-5.8498 4.76984,-10.61965 10.61964,-10.61965 2.33992,0 4.58985,0.80998 6.38978,2.06993 3.50989,-7.64974 11.24962,-12.95956 20.24932,-12.95956 12.32958,0 22.31925,9.98966 22.31925,22.31928 0,0.4499 0,0.8999 0,1.3499 z"
       class="fil9" />
    <g
       transform="matrix(0.08999696,0,0,0.08999696,-27.787446,183.3233)"
       style="fill-rule:evenodd"
       id="_431868072">
      <path
         style="fill:#fefefe"
         inkscape:connector-curvature="0"
         id="path325"
         d="m 1095,6453 c 0,-26 -2,-26 6,-45 6,-13 9,-24 11,-38 5,-26 8,-8 23,-26 8,-9 13,-20 16,-34 3,-16 4,-29 -2,-43 -11,-24 -10,4 -9,-36 1,-24 10,-71 1,-93 -18,-44 -32,-22 -55,-44 -17,-16 -50,-19 -81,-16 -27,3 -49,17 -76,23 -20,4 -26,-4 -34,16 -5,12 -8,41 -8,56 l 6,81 c -20,19 -18,42 -9,68 3,9 10,21 18,27 17,14 12,-6 19,26 2,10 7,24 12,33 9,18 7,10 7,37 0,38 -6,40 -34,53 -34,16 -95,36 -120,57 -11,9 -14,4 -25,19 -3,4 -14,26 -15,29 -3,11 -18,64 -13,74 8,17 170,32 204,32 l 108,0 c 41,0 213,-9 247,-25 18,-8 2,-52 -1,-68 -12,-54 -47,-66 -92,-87 -19,-9 -42,-21 -62,-28 -25,-10 -42,-15 -42,-47 z"
         class="fil9" />
      <path
         style="fill:#fefefe"
         inkscape:connector-curvature="0"
         id="path327"
         d="m 1346,6367 c -2,-5 -26,-15 -37,-47 -8,-24 -5,-50 -7,-77 -4,-49 -39,-77 -96,-70 -34,4 -26,24 -30,55 -2,15 14,40 13,70 -1,26 -11,45 -21,63 -6,10 -18,15 -22,20 -5,8 21,6 28,10 17,30 -38,37 -45,45 l 0,23 c 18,11 66,31 88,40 32,14 55,25 78,48 17,2 91,-8 98,-15 5,-9 -7,-47 -10,-55 -7,-16 -21,-21 -37,-29 -17,-8 -30,-13 -47,-20 -21,-9 -30,-9 -29,-37 20,-6 63,-9 75,-22 z"
         class="fil9" />
      <path
         style="fill:#fefefe"
         inkscape:connector-curvature="0"
         id="path329"
         d="m 858,6383 c 0,-24 16,-8 -1,-41 -15,-28 -18,-64 -4,-92 9,-17 1,-29 1,-50 0,-22 -9,-27 -31,-27 -21,-1 -33,0 -51,6 -17,6 -26,6 -34,24 -14,33 -1,67 -4,76 -2,7 -7,4 -8,20 0,18 7,31 18,39 7,4 15,31 17,40 13,42 -23,47 -51,60 -12,5 -26,13 -37,19 -17,9 -20,13 -27,30 -5,12 -11,30 -9,46 12,9 57,15 77,15 29,1 17,1 35,-12 47,-35 102,-50 153,-77 l 0,-16 c 0,-15 -20,-16 -33,-22 -17,-8 -13,-17 -13,-37 z"
         class="fil9" />
    </g>
    <path
       style="fill:#fefefe;fill-rule:evenodd"
       inkscape:connector-curvature="0"
       id="path331"
       d="m 150.31654,541.96119 6.02979,0 0,6.38978 -6.02979,0 0,-6.38978 z m -11.69961,-48.50836 29.42901,0 0,46.43843 -29.42901,0 0,-46.43843 z m 3.77988,-7.10976 21.68926,0 c 4.67984,0 8.54971,3.86987 8.54971,8.54971 l 0,49.13834 c 0,4.67984 -3.86987,8.54971 -8.54971,8.54971 l -21.68926,0 c -4.67985,0 -8.54972,-3.86987 -8.54972,-8.54971 l 0,-49.13834 c 0,-4.67984 3.86987,-8.54971 8.54972,-8.54971 z m -0.35999,2.15993 22.49924,0 c 3.14989,0 5.7598,2.60991 5.7598,5.7598 l 0,50.3983 c 0,3.14989 -2.60991,5.7598 -5.7598,5.7598 l -22.49924,0 c -3.1499,0 -5.75981,-2.60991 -5.75981,-5.7598 l 0,-50.3983 c 0,-3.14989 2.60991,-5.7598 5.75981,-5.7598 z"
       class="fil9" />
    <path
       style="fill:#fefefe;fill-rule:nonzero"
       inkscape:connector-curvature="0"
       id="path333"
       d="m 386.19857,489.49296 0,-0.09 c 0,-0.26999 -0.09,-0.53998 -0.26999,-0.62998 -0.17999,-0.17999 -0.53998,-0.17999 -0.89997,-0.17999 l -1.79994,0 c -0.80997,0 -1.25996,0.09 -1.52995,0.26999 -0.17999,0.18 -0.35999,0.62998 -0.35999,1.16996 l 0,1.07997 c 0,0.53998 0.09,0.89997 0.35999,1.07996 0.26999,0.17999 0.71998,0.26999 1.43995,0.26999 l 1.34996,0 c 0.71997,0 1.16996,-0.09 1.43995,-0.17999 0.26999,-0.18 0.35999,-0.44999 0.35999,-0.80998 l 0,-0.09 2.33992,0 c 0,0 0,0 0,0.09 0,0.18 0,0.35999 0,0.44999 0,0.44998 -0.09,0.89997 -0.18,1.16996 -0.09,0.26999 -0.26999,0.53998 -0.53998,0.71997 -0.26999,0.18 -0.53998,0.27 -0.98996,0.35999 -0.44999,0.09 -0.98997,0.09 -1.79994,0.09 l -2.60992,0 c -0.80997,0 -1.34995,0 -1.70994,-0.09 -0.35999,-0.09 -0.71997,-0.26999 -0.98996,-0.44998 -0.27,-0.26999 -0.53999,-0.53998 -0.62998,-0.89997 -0.18,-0.35999 -0.18,-0.80997 -0.18,-1.34996 l 0,-2.06993 c 0,-1.07996 0.26999,-1.79994 0.80998,-2.24992 0.53998,-0.44999 1.43995,-0.62998 2.7899,-0.62998 l 2.60991,0 c 0.80998,0 1.43995,0 1.79994,0.09 0.35999,0.09 0.71998,0.17999 0.89997,0.35999 0.26999,0.17999 0.44999,0.44998 0.53998,0.71997 0.09,0.27 0.18,0.71998 0.18,1.16996 0,0.09 0,0.18 0,0.27 0,0.09 0,0.09 0,0.17999 l -2.33992,0 z m 7.28975,4.85984 c -0.89997,0 -1.52994,0 -1.88993,-0.09 -0.44999,-0.09 -0.71998,-0.17999 -0.98997,-0.44999 -0.26999,-0.17999 -0.53998,-0.53998 -0.62998,-0.80997 -0.09,-0.35999 -0.17999,-0.80997 -0.17999,-1.34995 l 0,-2.06993 c 0,-0.62998 0.09,-1.16996 0.17999,-1.52995 0.09,-0.35999 0.35999,-0.62998 0.62998,-0.89997 0.26999,-0.17999 0.62998,-0.35999 0.98997,-0.44999 0.44998,-0.09 1.07996,-0.09 1.88993,-0.09 l 2.69991,0 c 0.89997,0 1.52995,0 1.88994,0.09 0.44998,0.09 0.71997,0.18 0.98997,0.44999 0.26999,0.17999 0.44998,0.53998 0.62997,0.89997 0.09,0.35999 0.18,0.80997 0.18,1.43995 l 0,2.06993 c 0,0.53998 -0.09,1.07996 -0.18,1.43995 -0.09,0.35999 -0.35998,0.62998 -0.62997,0.89997 -0.27,0.18 -0.62998,0.35999 -0.98997,0.44999 -0.44999,0.09 -1.07996,0.09 -1.88994,0.09 l -2.69991,0 z m 0.62998,-1.88994 1.43995,0 c 0.80998,0 1.34996,-0.09 1.61995,-0.26999 0.26999,-0.17999 0.35999,-0.53998 0.35999,-1.16996 l 0,-1.07996 c 0,-0.53998 -0.09,-0.89997 -0.35999,-1.16996 -0.26999,-0.18 -0.80997,-0.26999 -1.61995,-0.26999 l -1.43995,0 c -0.80997,0 -1.34995,0.09 -1.61994,0.26999 -0.26999,0.17999 -0.35999,0.62998 -0.35999,1.16996 l 0,1.07996 c 0,0.53998 0.17999,0.89997 0.44998,1.07997 0.26999,0.17999 0.80998,0.26999 1.61995,0.26999 z m 17.36942,1.79994 -3.32989,0 -4.49985,-5.48981 0,5.48981 -2.24992,0 0,-7.55974 3.41988,0 4.49985,5.48981 0,-5.48981 2.24992,0 0,7.55974 z m 6.38978,0 -2.24992,0 0,-5.66981 -3.1499,0 0,-1.79994 8.54971,0 0,1.79994 -3.14989,0 0,5.66981 z m 10.16966,-5.66981 -3.68988,0 0,1.79994 3.68988,0 c 0.26999,0 0.53998,-0.09 0.62998,-0.17999 0.09,-0.17999 0.17999,-0.35999 0.17999,-0.80997 0,-0.26999 -0.09,-0.53999 -0.17999,-0.62998 -0.09,-0.09 -0.35999,-0.18 -0.62998,-0.18 z m 0.09,-1.88993 c 1.16996,0 1.97994,0.17999 2.42992,0.53998 0.44999,0.35999 0.62998,0.98997 0.62998,1.88994 0,0.62997 -0.09,1.16996 -0.26999,1.43995 -0.17999,0.35998 -0.53998,0.53998 -0.98997,0.62998 0.35999,0.09 0.71998,0.26999 0.89997,0.53998 0.18,0.26999 0.26999,0.53998 0.26999,0.89997 l 0,1.52995 -2.33992,0 0,-1.16997 c 0,-0.26999 -0.09,-0.53998 -0.17999,-0.62997 -0.18,-0.09 -0.44999,-0.18 -0.80997,-0.18 l -3.41989,0 0,1.88994 -2.33992,0 0,-7.55975 6.0298,0 z m 8.09973,7.64974 c -0.89997,0 -1.52995,0 -1.88994,-0.09 -0.44998,-0.09 -0.71997,-0.17999 -0.98996,-0.44999 -0.26999,-0.17999 -0.53998,-0.53998 -0.62998,-0.80997 -0.09,-0.35999 -0.18,-0.80997 -0.18,-1.34995 l 0,-2.06993 c 0,-0.62998 0.09,-1.16996 0.18,-1.52995 0.09,-0.35999 0.35999,-0.62998 0.62998,-0.89997 0.26999,-0.17999 0.62998,-0.35999 0.98996,-0.44999 0.44999,-0.09 1.07997,-0.09 1.88994,-0.09 l 2.69991,0 c 0.89997,0 1.52995,0 1.88993,0.09 0.44999,0.09 0.71998,0.18 0.98997,0.44999 0.26999,0.17999 0.44999,0.53998 0.62998,0.89997 0.09,0.35999 0.17999,0.80997 0.17999,1.43995 l 0,2.06993 c 0,0.53998 -0.09,1.07996 -0.17999,1.43995 -0.09,0.35999 -0.35999,0.62998 -0.62998,0.89997 -0.26999,0.18 -0.62998,0.35999 -0.98997,0.44999 -0.44998,0.09 -1.07996,0.09 -1.88993,0.09 l -2.69991,0 z m 0.62998,-1.88994 1.43995,0 c 0.80997,0 1.34995,-0.09 1.61995,-0.26999 0.26999,-0.17999 0.35998,-0.53998 0.35998,-1.16996 l 0,-1.07996 c 0,-0.53998 -0.09,-0.89997 -0.35998,-1.16996 -0.27,-0.18 -0.80998,-0.26999 -1.61995,-0.26999 l -1.43995,0 c -0.80997,0 -1.34996,0.09 -1.61995,0.26999 -0.26999,0.17999 -0.35998,0.62998 -0.35998,1.16996 l 0,1.07996 c 0,0.53998 0.17999,0.89997 0.44998,1.07997 0.26999,0.17999 0.80997,0.26999 1.61995,0.26999 z m 9.62967,0 5.03983,0 0,1.79994 -7.28975,0 0,-7.55974 2.33992,0 0,5.66981 z m 8.36972,0 5.03983,0 0,1.79994 -7.28975,0 0,-7.55974 2.33992,0 0,5.66981 z m 14.12952,-3.86987 -5.9398,0 0,1.16996 5.57982,0 0,1.61995 -5.57982,0 0,1.16996 6.0298,0 0,1.79994 -8.27972,0 0,-7.55975 8.18972,0 0,1.79994 z m 7.37975,0 -3.68987,0 0,1.79994 3.68987,0 c 0.26999,0 0.53999,-0.09 0.62998,-0.17999 0.09,-0.17999 0.18,-0.35999 0.18,-0.80997 0,-0.26999 -0.09,-0.53999 -0.18,-0.62998 -0.09,-0.09 -0.35999,-0.18 -0.62998,-0.18 z m 0.09,-1.88993 c 1.16996,0 1.97993,0.17999 2.42992,0.53998 0.44998,0.35999 0.62998,0.98997 0.62998,1.88994 0,0.62997 -0.09,1.16996 -0.26999,1.43995 -0.18,0.35998 -0.53999,0.53998 -0.98997,0.62998 0.35999,0.09 0.71998,0.26999 0.89997,0.53998 0.17999,0.26999 0.26999,0.53998 0.26999,0.89997 l 0,1.52995 -2.33992,0 0,-1.16997 c 0,-0.26999 -0.09,-0.53998 -0.17999,-0.62997 -0.18,-0.09 -0.44999,-0.18 -0.80998,-0.18 l -3.41988,0 0,1.88994 -2.33992,0 0,-7.55975 6.02979,0 z"
       class="fil14" />
    <path
       style="fill:#fefefe;fill-rule:nonzero"
       inkscape:connector-curvature="0"
       id="path335"
       d="m 570.69234,635.64803 -3.41989,0 0,1.88993 3.41989,0 c 0.26999,0 0.53998,-0.09 0.62998,-0.17999 0.09,-0.18 0.17999,-0.44999 0.17999,-0.80998 0,-0.26999 -0.09,-0.53998 -0.17999,-0.62997 -0.09,-0.18 -0.35999,-0.18 -0.62998,-0.18 z m 0.09,-1.88994 c 0.53999,0 0.89997,0 1.25996,0.09 0.26999,0.09 0.53998,0.09 0.80997,0.26999 0.35999,0.17999 0.62998,0.44998 0.80998,0.89997 0.17999,0.35998 0.26999,0.89997 0.26999,1.61994 0,0.98997 -0.18,1.79994 -0.53998,2.15993 -0.35999,0.44998 -0.89997,0.62998 -1.70995,0.62998 l -4.31985,0 0,1.88993 -2.33992,0 0,-7.55974 5.7598,0 z m 4.31986,0 2.24992,0 0,4.49985 c 0,0.53998 0.09,0.80997 0.35999,0.98996 0.26999,0.18 0.71998,0.26999 1.52995,0.26999 l 1.25996,0 c 0.62998,0 1.07996,-0.09 1.25995,-0.26999 0.18,-0.17999 0.35999,-0.53998 0.35999,-0.98996 l 0,-4.49985 2.33992,0 0,5.12983 c 0,0.89997 -0.26999,1.52994 -0.71997,1.88993 -0.44999,0.35999 -1.25996,0.53998 -2.42992,0.53998 l -2.60991,0 c -1.34996,0 -2.33992,-0.17999 -2.87991,-0.53998 -0.53998,-0.35999 -0.80997,-0.98996 -0.80997,-1.88993 l 0,-5.12983 z m 13.13956,7.55974 -2.24993,0 0,-7.55974 3.41989,0 2.6999,4.67984 2.69991,-4.67984 3.32989,0 0,7.55974 -2.24992,0 0,-5.39981 -3.1499,5.39981 -1.52995,0 -3.05989,-5.39981 0,5.39981 z m 17.18941,-5.6698 -3.41988,0 0,1.88993 3.41988,0 c 0.27,0 0.53999,-0.09 0.62998,-0.17999 0.09,-0.18 0.18,-0.44999 0.18,-0.80998 0,-0.26999 -0.09,-0.53998 -0.18,-0.62997 -0.09,-0.18 -0.35998,-0.18 -0.62998,-0.18 z m 0.09,-1.88994 c 0.53998,0 0.89997,0 1.25996,0.09 0.26999,0.09 0.53998,0.09 0.80997,0.26999 0.35999,0.17999 0.62998,0.44998 0.80997,0.89997 0.18,0.35998 0.27,0.89997 0.27,1.61994 0,0.98997 -0.18,1.79994 -0.53999,2.15993 -0.35998,0.44998 -0.89997,0.62998 -1.70994,0.62998 l -4.31985,0 0,1.88993 -2.33992,0 0,-7.55974 5.7598,0 z m 4.22986,5.03983 2.24992,0 0,0.17999 c 0,0.26999 0.09,0.44999 0.18,0.53998 0.17999,0.09 0.44998,0.18 0.89997,0.18 l 2.8799,0 c 0.26999,0 0.44998,-0.09 0.62998,-0.18 0.09,-0.09 0.17999,-0.26999 0.17999,-0.44998 0,-0.26999 -0.09,-0.35999 -0.17999,-0.44999 -0.18,-0.09 -0.44999,-0.17999 -0.89997,-0.17999 l -3.59988,-0.09 c -0.89997,0 -1.52995,-0.17999 -1.79994,-0.53998 -0.35999,-0.35999 -0.44998,-0.89997 -0.44998,-1.70994 0,-0.44998 0,-0.80997 0.09,-1.07996 0.09,-0.26999 0.18,-0.53999 0.44999,-0.71998 0.17999,-0.17999 0.53998,-0.35999 0.89997,-0.44998 0.35998,-0.09 0.89997,-0.09 1.70994,-0.09 l 3.50988,0 c 0.89997,0 1.52995,0.17999 1.88994,0.44998 0.35998,0.35999 0.53998,0.80998 0.53998,1.52995 0,0.09 0,0.09 0,0.18 0,0.09 0,0.17999 0,0.26999 l -2.24993,0 0,0 c 0,-0.26999 -0.09,-0.44999 -0.17999,-0.53998 -0.09,-0.09 -0.35999,-0.18 -0.53998,-0.18 l -2.60991,0 c -0.44999,0 -0.71998,0 -0.89997,0.09 -0.18,0.09 -0.18,0.26999 -0.18,0.44998 0,0.18 0.09,0.35999 0.18,0.44999 0.09,0.09 0.35999,0.17999 0.71997,0.17999 l 3.77988,0.09 c 0.89996,0 1.43995,0.17999 1.79993,0.53998 0.35999,0.35999 0.53999,0.98997 0.53999,1.88994 0,0.53998 -0.09,0.89997 -0.18,1.16996 -0.09,0.26999 -0.35999,0.53998 -0.62998,0.71997 -0.17999,0.09 -0.44998,0.18 -0.80997,0.26999 -0.35999,0.09 -0.80997,0.09 -1.52995,0.09 l -3.05989,0 c -1.25996,0 -2.06993,-0.17999 -2.51992,-0.44998 -0.44998,-0.27 -0.62998,-0.80998 -0.62998,-1.52995 0,-0.09 0,-0.09 0,-0.18 0,-0.09 0,-0.26999 0,-0.35998 z"
       class="fil14" />
    <path
       style="fill:#fefefe;fill-rule:nonzero"
       inkscape:connector-curvature="0"
       id="path337"
       d="m 640.07999,793.77268 2.87991,0 -1.43995,-2.69991 -1.43996,2.69991 z m -1.61994,3.0599 -2.51992,0 4.13986,-7.55974 2.9699,0 4.04987,7.55974 -2.51992,0 -0.71997,-1.25996 -4.58985,0 -0.71997,1.25996 z m 13.13955,0 -2.24992,0 0,-5.66981 -3.14989,0 0,-1.79994 8.54971,0 0,1.79994 -3.1499,0 0,5.66981 z m 11.24962,-4.76984 0,0 c 0,-0.35999 -0.09,-0.53998 -0.26999,-0.71997 -0.17999,-0.09 -0.71997,-0.18 -1.43995,-0.18 l -1.34995,0 c -0.80997,0 -1.25996,0.09 -1.52995,0.26999 -0.17999,0.18 -0.35999,0.62998 -0.35999,1.16996 l 0,1.07997 c 0,0.53998 0.09,0.89997 0.35999,1.07996 0.26999,0.17999 0.71998,0.26999 1.43995,0.26999 l 1.34996,0 c 0.62997,0 1.07996,-0.09 1.34995,-0.17999 0.26999,-0.09 0.35999,-0.35999 0.35999,-0.62998 0,0 0,-0.09 0,-0.18 0,0 0,0 0,0 l -2.69991,0 0,-1.52994 5.12983,0 0,2.42991 c 0,0.71998 -0.26999,1.16996 -0.80998,1.52995 -0.53998,0.26999 -1.43995,0.44999 -2.69991,0.44999 l -2.51991,0 c -0.80997,0 -1.34995,0 -1.70994,-0.09 -0.35999,-0.09 -0.71998,-0.26999 -0.98997,-0.44998 -0.26999,-0.27 -0.53998,-0.53999 -0.62998,-0.89997 -0.17999,-0.35999 -0.17999,-0.80998 -0.17999,-1.34996 l 0,-2.06993 c 0,-1.07996 0.26999,-1.79994 0.80997,-2.24992 0.53998,-0.44999 1.43995,-0.62998 2.78991,-0.62998 l 2.60991,0 c 0.80997,0 1.43995,0 1.79994,0.09 0.35999,0.09 0.71997,0.17999 0.89997,0.35998 0.26999,0.18 0.44998,0.44999 0.53998,0.71998 0.09,0.26999 0.17999,0.71997 0.17999,1.16996 0,0.09 0,0.17999 0,0.26999 0,0.09 0,0.09 0,0.17999 l -2.33992,0 z"
       class="fil14" />
    <path
       style="fill:#fefefe;fill-rule:nonzero"
       inkscape:connector-curvature="0"
       id="path339"
       d="m 464.58592,977.90649 -2.60991,0 -2.42992,-7.5598 2.24993,0 1.52994,5.3098 1.88994,-5.3098 2.06993,0 1.79994,5.3098 1.61995,-5.3098 2.24992,0 -2.51992,7.5598 -2.60991,0 -1.70994,-5.2199 -1.79994,5.2199 z m 11.15963,-5.9398 -1.88994,0 0,-1.53 1.88994,0 0,1.53 z m 0,5.9398 -1.88994,0 0,-5.3099 1.88994,0 0,5.3099 z m 9.80966,-5.6698 -5.9398,0 0,1.3499 5.57982,0 0,1.8 -5.57982,0 0,2.5199 -2.24992,0 0,-7.5598 8.18972,0 0,1.8 z m 2.87991,-0.27 -1.88994,0 0,-1.53 1.88994,0 0,1.53 z m 0,5.9398 -1.88994,0 0,-5.3099 1.88994,0 0,5.3099 z m 10.16965,-7.6498 -3.95986,8.5497 -1.16996,0 3.95986,-8.5497 1.16996,0 z m -32.93888,15.20951 0,0 c 0,-0.36 -0.09,-0.54 -0.27,-0.72 -0.17999,-0.09 -0.71997,-0.18 -1.43995,-0.18 l -1.34995,0 c -0.80997,0 -1.25996,0.09 -1.52995,0.27 -0.17999,0.18 -0.35999,0.63 -0.35999,1.17 l 0,1.08 c 0,0.5399 0.09,0.8999 0.35999,1.0799 0.26999,0.18 0.71998,0.27 1.43995,0.27 l 1.34996,0 c 0.62998,0 1.07996,-0.09 1.34995,-0.18 0.26999,-0.09 0.35999,-0.36 0.35999,-0.63 0,0 0,-0.09 0,-0.18 0,0 0,0 0,0 l -2.69991,0 0,-1.5299 5.12983,0 0,2.4299 c 0,0.72 -0.26999,1.17 -0.80998,1.53 -0.53998,0.27 -1.43995,0.4499 -2.6999,0.4499 l -2.51992,0 c -0.80997,0 -1.34995,0 -1.70994,-0.09 -0.35999,-0.09 -0.71998,-0.2699 -0.98997,-0.4499 -0.26999,-0.27 -0.53998,-0.54 -0.62998,-0.9 -0.17999,-0.36 -0.17999,-0.81 -0.17999,-1.35 l 0,-2.0699 c 0,-1.08 0.26999,-1.7999 0.80997,-2.2499 0.53998,-0.45 1.43995,-0.63 2.78991,-0.63 l 2.60991,0 c 0.80997,0 1.43995,0 1.79994,0.09 0.35999,0.09 0.71997,0.18 0.89997,0.36 0.26999,0.18 0.44998,0.45 0.53998,0.72 0.09,0.27 0.17999,0.7199 0.17999,1.1699 0,0.09 0,0.18 0,0.27 0,0.09 0,0.09 0,0.18 l -2.33992,0 z m 9.44968,-0.81 -3.41989,0 0,1.89 3.41989,0 c 0.26999,0 0.53998,-0.09 0.62998,-0.18 0.09,-0.18 0.17999,-0.45 0.17999,-0.81 0,-0.27 -0.09,-0.54 -0.17999,-0.63 -0.09,-0.18 -0.35999,-0.18 -0.62998,-0.18 z m 0.09,-1.8899 c 0.53999,0 0.89997,0 1.25996,0.09 0.26999,0.09 0.53998,0.09 0.80997,0.27 0.35999,0.18 0.62998,0.45 0.80998,0.9 0.17999,0.36 0.26999,0.8999 0.26999,1.6199 0,0.99 -0.18,1.7999 -0.53998,2.1599 -0.35999,0.45 -0.89997,0.63 -1.70995,0.63 l -4.31985,0 0,1.8899 -2.33992,0 0,-7.5597 5.7598,0 z m 10.25966,1.8899 -3.68988,0 0,1.8 3.68988,0 c 0.26999,0 0.53998,-0.09 0.62998,-0.18 0.09,-0.18 0.17999,-0.36 0.17999,-0.81 0,-0.27 -0.09,-0.54 -0.17999,-0.63 -0.09,-0.09 -0.35999,-0.18 -0.62998,-0.18 z m 0.09,-1.8899 c 1.16996,0 1.97994,0.18 2.42992,0.54 0.44999,0.36 0.62998,0.99 0.62998,1.8899 0,0.63 -0.09,1.17 -0.26999,1.44 -0.17999,0.36 -0.53998,0.54 -0.98997,0.63 0.35999,0.09 0.71998,0.2699 0.89997,0.5399 0.18,0.27 0.26999,0.54 0.26999,0.9 l 0,1.53 -2.33992,0 0,-1.17 c 0,-0.27 -0.09,-0.54 -0.17999,-0.63 -0.18,-0.09 -0.44999,-0.18 -0.80997,-0.18 l -3.41989,0 0,1.89 -2.33992,0 0,-7.5598 6.0298,0 z m 4.40985,5.0398 2.24993,0 0,0.18 c 0,0.27 0.09,0.45 0.17999,0.54 0.18,0.09 0.44999,0.18 0.89997,0.18 l 2.87991,0 c 0.26999,0 0.44998,-0.09 0.62997,-0.18 0.09,-0.09 0.18,-0.27 0.18,-0.45 0,-0.27 -0.09,-0.36 -0.18,-0.45 -0.17999,-0.09 -0.44998,-0.18 -0.89997,-0.18 l -3.59987,-0.09 c -0.89997,0 -1.52995,-0.1799 -1.79994,-0.5399 -0.35999,-0.36 -0.44999,-0.9 -0.44999,-1.71 0,-0.45 0,-0.8099 0.09,-1.0799 0.09,-0.27 0.17999,-0.54 0.44998,-0.72 0.18,-0.18 0.53999,-0.36 0.89997,-0.45 0.35999,-0.09 0.89997,-0.09 1.70995,-0.09 l 3.50988,0 c 0.89997,0 1.52995,0.18 1.88993,0.45 0.35999,0.36 0.53998,0.81 0.53998,1.5299 0,0.09 0,0.09 0,0.18 0,0.09 0,0.18 0,0.27 l -2.24992,0 0,0 c 0,-0.27 -0.09,-0.45 -0.17999,-0.54 -0.09,-0.09 -0.35999,-0.18 -0.53998,-0.18 l -2.60992,0 c -0.44998,0 -0.71997,0 -0.89997,0.09 -0.17999,0.09 -0.17999,0.27 -0.17999,0.45 0,0.18 0.09,0.36 0.17999,0.45 0.09,0.09 0.35999,0.18 0.71998,0.18 l 3.77987,0.09 c 0.89997,0 1.43995,0.18 1.79994,0.54 0.35999,0.36 0.53998,0.99 0.53998,1.8899 0,0.54 -0.09,0.9 -0.17999,1.17 -0.09,0.27 -0.35999,0.54 -0.62998,0.72 -0.17999,0.09 -0.44998,0.18 -0.80997,0.2699 -0.35999,0.09 -0.80998,0.09 -1.52995,0.09 l -3.0599,0 c -1.25996,0 -2.06993,-0.1799 -2.51991,-0.4499 -0.44999,-0.27 -0.62998,-0.81 -0.62998,-1.53 0,-0.09 0,-0.09 0,-0.18 0,-0.09 0,-0.27 0,-0.36 z"
       class="fil14" />
    <path
       style="fill:#fefefe;fill-rule:nonzero"
       inkscape:connector-curvature="0"
       id="path341"
       d="m 176.05567,916.61853 0,-0.09 c 0,-0.26999 -0.09,-0.53998 -0.26999,-0.62998 -0.18,-0.18 -0.53998,-0.18 -0.89997,-0.18 l -1.79994,0 c -0.80997,0 -1.25996,0.09 -1.52995,0.27 -0.17999,0.17999 -0.35999,0.62997 -0.35999,1.16996 l 0,1.07996 c 0,0.53998 0.09,0.89997 0.35999,1.07996 0.26999,0.18 0.71998,0.26999 1.43995,0.26999 l 1.34996,0 c 0.71997,0 1.16996,-0.09 1.43995,-0.17999 0.26999,-0.17999 0.35999,-0.44998 0.35999,-0.80997 l 0,-0.09 2.33992,0 c 0,0 0,0 0,0.09 0,0.17999 0,0.35999 0,0.44998 0,0.44999 -0.09,0.89997 -0.18,1.16996 -0.09,0.26999 -0.26999,0.53998 -0.53998,0.71998 -0.26999,0.17999 -0.53998,0.26999 -0.98997,0.35999 -0.44998,0.09 -0.98996,0.09 -1.79994,0.09 l -2.60991,0 c -0.80997,0 -1.34995,0 -1.70994,-0.09 -0.35999,-0.09 -0.71997,-0.26999 -0.98997,-0.44999 -0.26999,-0.26999 -0.53998,-0.53998 -0.62997,-0.89997 -0.18,-0.35999 -0.18,-0.80997 -0.18,-1.34995 l 0,-2.06993 c 0,-1.07997 0.26999,-1.79994 0.80997,-2.24993 0.53999,-0.44998 1.43996,-0.62998 2.78991,-0.62998 l 2.60991,0 c 0.80997,0 1.43995,0 1.79994,0.09 0.35999,0.09 0.71998,0.18 0.89997,0.35999 0.26999,0.17999 0.44999,0.44998 0.53998,0.71997 0.09,0.27 0.18,0.71998 0.18,1.16997 0,0.09 0,0.17999 0,0.26999 0,0.09 0,0.09 0,0.17999 l -2.33992,0 z m 6.11979,2.9699 5.03983,0 0,1.79994 -7.28975,0 0,-7.55974 2.33992,0 0,5.66981 z m 9.44968,1.88994 c -0.89997,0 -1.52995,0 -1.88993,-0.09 -0.44999,-0.09 -0.71998,-0.17999 -0.98997,-0.44998 -0.26999,-0.18 -0.53998,-0.53998 -0.62998,-0.80997 -0.09,-0.35999 -0.17999,-0.80998 -0.17999,-1.34996 l 0,-2.06993 c 0,-0.62998 0.09,-1.16996 0.17999,-1.52995 0.09,-0.35999 0.35999,-0.62998 0.62998,-0.89997 0.26999,-0.17999 0.62998,-0.35998 0.98997,-0.44998 0.44998,-0.09 1.07996,-0.09 1.88993,-0.09 l 2.69991,0 c 0.89997,0 1.52995,0 1.88994,0.09 0.44998,0.09 0.71997,0.17999 0.98996,0.44998 0.26999,0.18 0.44999,0.53998 0.62998,0.89997 0.09,0.35999 0.18,0.80998 0.18,1.43995 l 0,2.06993 c 0,0.53999 -0.09,1.07997 -0.18,1.43996 -0.09,0.35998 -0.35999,0.62997 -0.62998,0.89997 -0.26999,0.17999 -0.62997,0.35998 -0.98996,0.44998 -0.44999,0.09 -1.07997,0.09 -1.88994,0.09 l -2.69991,0 z m 0.62998,-1.88994 1.43995,0 c 0.80998,0 1.34996,-0.09 1.61995,-0.26999 0.26999,-0.17999 0.35999,-0.53998 0.35999,-1.16996 l 0,-1.07996 c 0,-0.53998 -0.09,-0.89997 -0.35999,-1.16996 -0.26999,-0.18 -0.80997,-0.26999 -1.61995,-0.26999 l -1.43995,0 c -0.80997,0 -1.34995,0.09 -1.61994,0.26999 -0.27,0.17999 -0.35999,0.62998 -0.35999,1.16996 l 0,1.07996 c 0,0.53998 0.17999,0.89997 0.44998,1.07997 0.26999,0.17999 0.80998,0.26999 1.61995,0.26999 z m 7.19976,-5.7598 2.24992,0 0,4.49985 c 0,0.53998 0.09,0.80997 0.35999,0.98996 0.26999,0.18 0.71998,0.26999 1.52995,0.26999 l 1.25996,0 c 0.62997,0 1.07996,-0.09 1.25995,-0.26999 0.18,-0.17999 0.35999,-0.53998 0.35999,-0.98996 l 0,-4.49985 2.33992,0 0,5.12983 c 0,0.89996 -0.26999,1.52994 -0.71997,1.88993 -0.44999,0.35999 -1.25996,0.53998 -2.42992,0.53998 l -2.60991,0 c -1.34996,0 -2.33992,-0.17999 -2.87991,-0.53998 -0.53998,-0.35999 -0.80997,-0.98997 -0.80997,-1.88993 l 0,-5.12983 z m 16.73943,1.88993 -3.59988,0 0,3.86987 3.86987,0 c 0.44999,0 0.80998,-0.09 1.07997,-0.26999 0.26999,-0.17999 0.35998,-0.53998 0.35998,-0.89997 l 0,-1.34995 c 0,-0.44999 -0.17999,-0.80997 -0.44998,-0.98997 -0.26999,-0.17999 -0.71998,-0.26999 -1.25996,-0.26999 z m 0.71998,-1.88993 c 1.16996,0 1.97993,0.17999 2.51991,0.62998 0.53998,0.35998 0.80998,1.07996 0.80998,1.88993 l 0,2.60992 c 0,0.80997 -0.18,1.43995 -0.62998,1.79993 -0.44999,0.35999 -1.07997,0.53999 -1.97994,0.53999 l -7.28975,0 0,-7.55975 6.56978,0 z"
       class="fil14" />
    <path
       style="fill:#fefefe;fill-rule:nonzero"
       inkscape:connector-curvature="0"
       id="path343"
       d="m 36.830371,709.89552 -3.689875,0 0,1.79994 3.689875,0 c 0.269991,0 0.539982,-0.09 0.629979,-0.18 0.09,-0.17999 0.179994,-0.35999 0.179994,-0.80997 0,-0.26999 -0.09,-0.53998 -0.179994,-0.62998 -0.09,-0.09 -0.359988,-0.17999 -0.629979,-0.17999 z m 0.09,-1.88994 c 1.169961,0 1.979933,0.17999 2.429918,0.53998 0.449985,0.35999 0.629979,0.98997 0.629979,1.88994 0,0.62998 -0.09,1.16996 -0.269991,1.43995 -0.179994,0.35999 -0.539982,0.53998 -0.989967,0.62998 0.359988,0.09 0.719976,0.26999 0.89997,0.53998 0.179994,0.26999 0.269991,0.53998 0.269991,0.89997 l 0,1.52995 -2.339921,0 0,-1.16996 c 0,-0.26999 -0.09,-0.53998 -0.179994,-0.62998 -0.179994,-0.09 -0.449985,-0.17999 -0.809973,-0.17999 l -3.419884,0 0,1.88993 -2.339921,0 0,-7.55974 6.029796,0 z m 12.779568,1.79994 -5.939799,0 0,1.16996 5.579812,0 0,1.61995 -5.579812,0 0,1.16996 6.029796,0 0,1.79994 -8.27972,0 0,-7.55975 8.189723,0 0,1.79994 z m 7.10976,0 -3.419884,0 0,1.88994 3.419884,0 c 0.269991,0 0.539982,-0.09 0.629979,-0.18 0.09,-0.17999 0.179994,-0.44998 0.179994,-0.80997 0,-0.26999 -0.09,-0.53998 -0.179994,-0.62998 -0.09,-0.17999 -0.359988,-0.17999 -0.629979,-0.17999 z m 0.09,-1.88994 c 0.539982,0 0.89997,0 1.259958,0.09 0.269991,0.09 0.539981,0.09 0.809972,0.26999 0.359988,0.18 0.629979,0.44999 0.809973,0.89997 0.179994,0.35999 0.269991,0.89997 0.269991,1.61995 0,0.98996 -0.179994,1.79994 -0.539982,2.15992 -0.359988,0.44999 -0.89997,0.62998 -1.709942,0.62998 l -4.319854,0 0,1.88994 -2.339921,0 0,-7.55975 5.759805,0 z m 7.919733,7.64975 c -0.89997,0 -1.529949,0 -1.889936,-0.09 -0.449985,-0.09 -0.719976,-0.18 -0.989967,-0.44999 -0.269991,-0.17999 -0.539982,-0.53998 -0.629979,-0.80997 -0.09,-0.35999 -0.179994,-0.80997 -0.179994,-1.34995 l 0,-2.06993 c 0,-0.62998 0.09,-1.16996 0.179994,-1.52995 0.09,-0.35999 0.359988,-0.62998 0.629979,-0.89997 0.269991,-0.18 0.629979,-0.35999 0.989967,-0.44999 0.449984,-0.09 1.079963,-0.09 1.889936,-0.09 l 2.699909,0 c 0.899969,0 1.529948,0 1.889936,0.09 0.449984,0.09 0.719975,0.18 0.989966,0.44999 0.269991,0.17999 0.449985,0.53998 0.629979,0.89997 0.09,0.35999 0.179994,0.80997 0.179994,1.43995 l 0,2.06993 c 0,0.53998 -0.09,1.07996 -0.179994,1.43995 -0.09,0.35999 -0.359988,0.62998 -0.629979,0.89997 -0.269991,0.17999 -0.629978,0.35999 -0.989966,0.44999 -0.449985,0.09 -1.079964,0.09 -1.889936,0.09 l -2.699909,0 z m 0.629978,-1.88994 1.439952,0 c 0.809972,0 1.349954,-0.09 1.619945,-0.26999 0.269991,-0.18 0.359988,-0.53998 0.359988,-1.16996 l 0,-1.07997 c 0,-0.53998 -0.09,-0.89997 -0.359988,-1.16996 -0.269991,-0.17999 -0.809973,-0.26999 -1.619945,-0.26999 l -1.439952,0 c -0.809972,0 -1.349954,0.09 -1.619945,0.26999 -0.269991,0.18 -0.359988,0.62998 -0.359988,1.16996 l 0,1.07997 c 0,0.53998 0.179994,0.89997 0.449985,1.07996 0.269991,0.18 0.809973,0.26999 1.619945,0.26999 z m 13.139557,-3.86987 -3.689876,0 0,1.79994 3.689876,0 c 0.26999,0 0.539981,-0.09 0.629978,-0.17999 0.09,-0.18 0.179994,-0.35999 0.179994,-0.80998 0,-0.26999 -0.09,-0.53998 -0.179994,-0.62998 -0.09,-0.09 -0.359988,-0.17999 -0.629978,-0.17999 z m 0.09,-1.88994 c 1.16996,0 1.979933,0.18 2.429917,0.53999 0.449985,0.35998 0.629979,0.98996 0.629979,1.88993 0,0.62998 -0.09,1.16996 -0.269991,1.43995 -0.179994,0.35999 -0.539981,0.53998 -0.989966,0.62998 0.359988,0.09 0.719975,0.26999 0.899969,0.53998 0.179994,0.26999 0.269991,0.53999 0.269991,0.89997 l 0,1.52995 -2.339921,0 0,-1.16996 c 0,-0.26999 -0.09,-0.53998 -0.179994,-0.62998 -0.179994,-0.09 -0.449984,-0.17999 -0.809972,-0.17999 l -3.419885,0 0,1.88993 -2.339921,0 0,-7.55974 6.029797,0 z m 9.44968,7.55975 -2.249924,0 0,-5.66981 -3.149893,0 0,-1.79994 8.549711,0 0,1.79994 -3.149894,0 0,5.66981 z m 6.569778,0 -2.339921,0 0,-7.55975 2.339921,0 0,7.55975 z m 11.789605,0 -3.3299,0 -4.499835,-5.48982 0,5.48982 -2.24993,0 0,-7.55975 3.41989,0 4.499835,5.48982 0,-5.48982 2.24994,0 0,7.55975 z m 8.63971,-4.76984 0,0 c 0,-0.35999 -0.09,-0.53998 -0.26999,-0.71998 -0.18,-0.09 -0.71998,-0.17999 -1.43996,-0.17999 l -1.34995,0 c -0.80997,0 -1.25996,0.09 -1.52995,0.26999 -0.17999,0.17999 -0.35999,0.62998 -0.35999,1.16996 l 0,1.07996 c 0,0.53999 0.09,0.89997 0.35999,1.07997 0.26999,0.17999 0.71998,0.26999 1.43995,0.26999 l 1.34996,0 c 0.62998,0 1.07996,-0.09 1.34995,-0.17999 0.26999,-0.09 0.35999,-0.35999 0.35999,-0.62998 0,0 0,-0.09 0,-0.18 0,0 0,0 0,0 l -2.69991,0 0,-1.52995 5.12983,0 0,2.42992 c 0,0.71998 -0.26999,1.16996 -0.80998,1.52995 -0.53998,0.26999 -1.43995,0.44999 -2.6999,0.44999 l -2.51992,0 c -0.80997,0 -1.34995,0 -1.70994,-0.09 -0.35999,-0.09 -0.71998,-0.26999 -0.98997,-0.44999 -0.26999,-0.26999 -0.53998,-0.53998 -0.62998,-0.89997 -0.17999,-0.35998 -0.17999,-0.80997 -0.17999,-1.34995 l 0,-2.06993 c 0,-1.07996 0.26999,-1.79994 0.80997,-2.24992 0.53998,-0.44999 1.43995,-0.62998 2.78991,-0.62998 l 2.60991,0 c 0.80997,0 1.43995,0 1.79994,0.09 0.35999,0.09 0.71997,0.18 0.89997,0.35999 0.26999,0.18 0.44998,0.44999 0.53998,0.71998 0.09,0.26999 0.17999,0.71997 0.17999,1.16996 0,0.09 0,0.17999 0,0.26999 0,0.09 0,0.09 0,0.17999 l -2.33992,0 z"
       class="fil14" />
    <path
       style="fill:#fefefe;fill-rule:nonzero"
       inkscape:connector-curvature="0"
       id="path345"
       d="m 187.0353,522.07186 -2.24993,0 0,-7.55974 3.41989,0 2.69991,4.67984 2.69991,-4.67984 3.32988,0 0,7.55974 -2.24992,0 0,-5.39982 -3.14989,5.39982 -1.52995,0 -3.0599,-5.39982 0,5.39982 z m 15.02949,0.09 c -0.89997,0 -1.52995,0 -1.88994,-0.09 -0.44998,-0.09 -0.71997,-0.17999 -0.98996,-0.44998 -0.26999,-0.18 -0.53998,-0.53999 -0.62998,-0.80998 -0.09,-0.35998 -0.18,-0.80997 -0.18,-1.34995 l 0,-2.06993 c 0,-0.62998 0.09,-1.16996 0.18,-1.52995 0.09,-0.35999 0.35999,-0.62998 0.62998,-0.89997 0.26999,-0.17999 0.62998,-0.35999 0.98996,-0.44998 0.44999,-0.09 1.07997,-0.09 1.88994,-0.09 l 2.69991,0 c 0.89997,0 1.52995,0 1.88993,0.09 0.44999,0.09 0.71998,0.17999 0.98997,0.44998 0.26999,0.18 0.44999,0.53998 0.62998,0.89997 0.09,0.35999 0.17999,0.80997 0.17999,1.43995 l 0,2.06993 c 0,0.53998 -0.09,1.07997 -0.17999,1.43995 -0.09,0.35999 -0.35999,0.62998 -0.62998,0.89997 -0.26999,0.18 -0.62998,0.35999 -0.98997,0.44999 -0.44998,0.09 -1.07996,0.09 -1.88993,0.09 l -2.69991,0 z m 0.62998,-1.88994 1.43995,0 c 0.80997,0 1.34995,-0.09 1.61995,-0.26999 0.26999,-0.17999 0.35998,-0.53998 0.35998,-1.16996 l 0,-1.07996 c 0,-0.53998 -0.09,-0.89997 -0.35998,-1.16996 -0.27,-0.18 -0.80998,-0.26999 -1.61995,-0.26999 l -1.43995,0 c -0.80997,0 -1.34996,0.09 -1.61995,0.26999 -0.26999,0.17999 -0.35998,0.62998 -0.35998,1.16996 l 0,1.07996 c 0,0.53998 0.17999,0.89997 0.44998,1.07996 0.26999,0.18 0.80997,0.27 1.61995,0.27 z m 13.67954,0.09 c 0.17999,0 0.35998,-0.09 0.44998,-0.17999 0.09,-0.09 0.18,-0.27 0.18,-0.53999 0,-0.17999 -0.09,-0.35998 -0.18,-0.44998 -0.09,-0.09 -0.26999,-0.18 -0.44998,-0.18 l -4.22986,0 0,1.34996 4.22986,0 z m -0.18,-2.8799 c 0.18,0 0.35999,-0.09 0.44999,-0.18 0.09,-0.09 0.17999,-0.26999 0.17999,-0.44998 0,-0.18 -0.09,-0.35999 -0.17999,-0.44999 -0.09,-0.09 -0.26999,-0.17999 -0.44999,-0.17999 l -4.04986,0 0,1.25996 4.04986,0 z m 0.80998,4.58984 -7.10976,0 0,-7.55974 6.74977,0 c 0.80997,0 1.43995,0.17999 1.88993,0.53998 0.44999,0.35999 0.62998,0.89997 0.62998,1.61994 0,0.35999 -0.09,0.71998 -0.26999,0.98997 -0.17999,0.26999 -0.44998,0.44999 -0.80997,0.62998 0.44998,0.09 0.80997,0.26999 1.07996,0.53998 0.18,0.26999 0.35999,0.71998 0.35999,1.25996 0,0.71997 -0.17999,1.25996 -0.53998,1.52995 -0.35999,0.35998 -0.98997,0.44998 -1.79994,0.44998 z m 6.11979,0 -2.33992,0 0,-7.55974 2.33992,0 0,7.55974 z m 4.04986,-1.79994 5.03983,0 0,1.79994 -7.28975,0 0,-7.55974 2.33992,0 0,5.66981 z m 14.12952,-3.86987 -5.9398,0 0,1.16996 5.57982,0 0,1.61995 -5.57982,0 0,1.16996 6.0298,0 0,1.79994 -8.27972,0 0,-7.55975 8.18972,0 0,1.79994 z"
       class="fil14" />
    <g
       transform="matrix(0.08999696,0,0,0.08999696,-27.787446,183.3233)"
       style="fill-rule:evenodd"
       id="g425">
      <g
         id="_360518528">
        <path
           style="fill:#727376;fill-rule:nonzero"
           inkscape:connector-curvature="0"
           id="path428"
           d="m 2707,5675 -41,-108 43,0 25,76 28,-76 35,0 27,76 27,-76 41,0 -42,108 -50,0 -21,-60 -22,60 -50,0 z m 230,0 -41,-108 43,0 25,76 28,-76 35,0 27,76 27,-76 41,0 -42,108 -50,0 -21,-60 -22,60 -50,0 z m 230,0 -41,-108 43,0 25,76 28,-76 35,0 27,76 27,-76 41,0 -42,108 -50,0 -21,-60 -22,60 -50,0 z m 248,0 -43,0 0,-43 43,0 0,43 z m 91,0 -39,0 0,-78 -19,0 0,-29 19,0 0,-3 c 0,-15 4,-26 11,-32 7,-6 19,-9 37,-9 l 25,0 0,27 c 0,0 -1,0 -1,0 -4,0 -7,0 -9,0 -8,0 -14,1 -18,3 -4,2 -5,6 -5,11 0,1 0,2 0,2 0,1 0,1 0,1 l 36,0 0,29 -36,0 0,78 z m 151,-108 39,0 0,108 -39,0 0,-17 c -4,7 -10,11 -17,14 -7,3 -17,4 -32,4 -18,0 -31,-3 -40,-10 -9,-7 -13,-17 -13,-30 l 0,-69 39,0 0,55 c 0,9 2,15 6,18 4,3 12,5 23,5 13,0 21,-2 26,-6 5,-4 7,-10 7,-20 l 0,-53 z m 164,72 37,0 0,2 c 0,13 -4,22 -12,27 -8,6 -20,8 -38,8 l -36,0 c -16,0 -29,-3 -37,-10 -9,-7 -13,-17 -13,-29 l 0,-29 c 0,-14 4,-24 13,-31 9,-7 21,-11 37,-11 l 36,0 c 16,0 29,4 37,11 9,7 13,18 13,31 l 0,23 -97,0 c 0,0 0,1 0,2 0,1 0,1 0,1 0,6 2,11 5,13 4,3 10,4 18,4 l 16,0 c 8,0 14,-1 16,-2 3,-2 4,-5 5,-9 z m -61,-32 60,0 0,0 c 0,-5 -2,-9 -5,-11 -3,-2 -9,-3 -17,-3 l -16,0 c -8,0 -14,1 -17,3 -3,2 -5,6 -5,11 l 0,0 z m 164,68 -39,0 0,-152 39,0 0,152 z m 42,-80 -22,0 0,-28 22,0 0,-26 39,0 0,26 61,0 0,28 -61,0 0,37 c 0,6 1,10 3,12 2,2 6,3 12,3 6,0 11,-1 13,-3 2,-2 4,-6 4,-12 0,-1 0,-3 0,-6 0,0 0,0 0,-1 l 34,0 c 0,1 0,2 0,4 0,1 0,3 0,6 0,15 -4,25 -13,32 -9,6 -22,10 -42,10 -19,0 -32,-3 -39,-8 -8,-6 -11,-15 -11,-29 l 0,-44 z m 167,-8 c 4,-8 9,-13 15,-17 6,-3 14,-5 24,-5 15,0 26,3 32,10 6,6 9,17 9,32 0,2 0,6 0,10 l 0,1 -34,0 0,-2 c 0,-6 -2,-11 -5,-14 -4,-3 -9,-5 -16,-5 -8,0 -14,2 -18,5 -4,3 -6,8 -6,15 l 0,57 -39,0 0,-108 39,0 0,20 z m 157,60 18,0 c 9,0 16,-1 20,-4 4,-3 6,-8 6,-15 l 0,-14 c 0,-7 -2,-12 -6,-15 -4,-3 -10,-4 -19,-4 l -18,0 c -10,0 -16,1 -20,4 -4,3 -5,8 -5,15 l 0,14 c 0,7 2,12 6,15 4,3 10,4 20,4 z m -10,29 c -19,0 -33,-3 -41,-9 -8,-6 -12,-16 -12,-30 l 0,-29 c 0,-15 4,-26 12,-32 8,-6 22,-9 42,-9 l 39,0 c 19,0 33,3 41,9 8,6 13,17 13,31 l 0,30 c 0,15 -4,25 -12,31 -8,6 -22,9 -41,9 l -39,0 z m 157,-1 -39,0 0,-107 39,0 0,17 c 4,-7 10,-11 17,-14 7,-3 17,-4 31,-4 18,0 31,3 39,10 9,7 13,16 13,29 l 0,70 -39,0 0,-54 c 0,-10 -2,-16 -6,-19 -4,-3 -13,-5 -25,-5 -11,0 -19,2 -24,6 -5,4 -7,11 -7,20 l 0,52 z m 170,-121 -39,0 0,-32 39,0 0,32 z m 0,121 -39,0 0,-108 39,0 0,108 z m 79,1 c -18,0 -31,-3 -39,-9 -8,-6 -12,-16 -12,-30 l 0,-29 c 0,-16 4,-26 11,-33 8,-6 21,-9 40,-9 l 37,0 c 18,0 31,3 39,9 8,6 13,15 13,28 0,1 0,3 0,4 0,1 0,3 -1,5 l -37,0 0,-1 c 0,-6 -2,-10 -5,-12 -3,-2 -9,-4 -16,-4 l -19,0 c -9,0 -15,1 -18,4 -3,3 -5,8 -5,15 l 0,14 c 0,7 2,12 5,15 4,3 10,4 18,4 l 17,0 c 10,0 16,-1 19,-4 3,-2 5,-7 5,-14 l 39,0 c 0,1 0,2 0,3 0,1 0,2 0,4 0,14 -4,25 -12,31 -8,6 -22,9 -41,9 l -37,0 z m 174,-1 -43,0 0,-43 43,0 0,43 z m 92,1 c -18,0 -31,-3 -39,-9 -8,-6 -12,-16 -12,-30 l 0,-29 c 0,-16 4,-26 11,-33 8,-6 21,-9 40,-9 l 37,0 c 18,0 31,3 39,9 8,6 13,15 13,28 0,1 0,3 0,4 0,1 0,3 -1,5 l -37,0 0,-1 c 0,-6 -2,-10 -5,-12 -3,-2 -9,-4 -16,-4 l -19,0 c -9,0 -15,1 -18,4 -3,3 -5,8 -5,15 l 0,14 c 0,7 2,12 5,15 4,3 10,4 18,4 l 17,0 c 10,0 16,-1 19,-4 3,-2 5,-7 5,-14 l 39,0 c 0,1 0,2 0,3 0,1 0,2 0,4 0,14 -4,25 -12,31 -8,6 -22,9 -41,9 l -37,0 z m 176,-29 18,0 c 9,0 16,-1 20,-4 4,-3 6,-8 6,-15 l 0,-14 c 0,-7 -2,-12 -6,-15 -4,-3 -10,-4 -19,-4 l -18,0 c -10,0 -16,1 -20,4 -4,3 -5,8 -5,15 l 0,14 c 0,7 2,12 6,15 4,3 10,4 20,4 z m -10,29 c -19,0 -33,-3 -41,-9 -8,-6 -12,-16 -12,-30 l 0,-29 c 0,-15 4,-26 12,-32 8,-6 22,-9 42,-9 l 39,0 c 19,0 33,3 41,9 8,6 13,17 13,31 l 0,30 c 0,15 -4,25 -12,31 -8,6 -22,9 -41,9 l -39,0 z m 176,-1 -43,0 0,-43 43,0 0,43 z m 157,0 -122,0 0,-27 65,-51 -61,0 0,-30 116,0 0,30 -62,49 64,0 0,29 z m 94,-47 -24,0 c -7,0 -12,1 -15,3 -3,2 -4,5 -4,9 0,4 1,6 4,8 3,2 8,2 15,2 l 24,0 c 7,0 12,-1 15,-3 3,-2 4,-5 4,-9 0,-4 -1,-7 -4,-8 -3,-2 -8,-2 -15,-2 z m 59,47 -39,0 0,-13 c -4,5 -10,9 -18,11 -8,2 -19,3 -32,3 -20,0 -33,-3 -41,-8 -7,-5 -11,-15 -11,-28 0,-13 4,-23 11,-28 8,-5 22,-8 43,-8 12,0 22,1 29,2 8,2 14,4 18,7 l 0,-12 c 0,-4 -1,-7 -4,-9 -3,-2 -6,-3 -11,-3 l -32,0 c -4,0 -7,1 -9,2 -2,1 -3,3 -3,6 l -39,0 0,-1 c 0,-11 4,-19 13,-25 8,-5 22,-8 42,-8 l 38,0 c 15,0 26,3 33,9 7,6 11,15 11,27 l 0,74 z m -3071,251 -68,0 -91,-111 0,111 -46,0 0,-152 69,0 91,112 0,-112 46,0 0,152 z m 104,-47 -24,0 c -7,0 -12,1 -15,3 -3,2 -4,5 -4,9 0,4 1,6 4,8 3,2 8,2 15,2 l 24,0 c 7,0 12,-1 15,-3 3,-2 4,-5 4,-9 0,-4 -1,-7 -4,-8 -3,-2 -8,-2 -15,-2 z m 59,47 -39,0 0,-13 c -4,5 -10,9 -18,11 -8,2 -19,3 -32,3 -20,0 -33,-3 -41,-8 -7,-5 -11,-15 -11,-28 0,-13 4,-23 11,-28 8,-5 22,-8 43,-8 12,0 22,1 29,2 8,2 14,4 18,7 l 0,-12 c 0,-4 -1,-7 -4,-9 -3,-2 -6,-3 -11,-3 l -32,0 c -4,0 -7,1 -9,2 -2,1 -3,3 -3,6 l -39,0 0,-1 c 0,-11 4,-19 13,-25 8,-5 22,-8 42,-8 l 38,0 c 15,0 26,3 33,9 7,6 11,15 11,27 l 0,74 z m 37,-80 -22,0 0,-28 22,0 0,-26 39,0 0,26 61,0 0,28 -61,0 0,37 c 0,6 1,10 3,12 2,2 6,3 12,3 6,0 11,-1 13,-3 2,-2 4,-6 4,-12 0,-1 0,-3 0,-6 0,0 0,0 0,-1 l 34,0 c 0,1 0,2 0,4 0,1 0,3 0,6 0,15 -4,25 -13,32 -9,6 -22,10 -42,10 -19,0 -32,-3 -39,-8 -8,-6 -11,-15 -11,-29 l 0,-44 z m 167,-41 -39,0 0,-32 39,0 0,32 z m 0,121 -39,0 0,-108 39,0 0,108 z m 91,-28 18,0 c 9,0 16,-1 20,-4 4,-3 6,-8 6,-15 l 0,-14 c 0,-7 -2,-12 -6,-15 -4,-3 -10,-4 -19,-4 l -18,0 c -10,0 -16,1 -20,4 -4,3 -5,8 -5,15 l 0,14 c 0,7 2,12 6,15 4,3 10,4 20,4 z m -10,29 c -19,0 -33,-3 -41,-9 -8,-6 -12,-16 -12,-30 l 0,-29 c 0,-15 4,-26 12,-32 8,-6 22,-9 42,-9 l 39,0 c 19,0 33,3 41,9 8,6 13,17 13,31 l 0,30 c 0,15 -4,25 -12,31 -8,6 -22,9 -41,9 l -39,0 z m 157,-1 -39,0 0,-107 39,0 0,17 c 4,-7 10,-11 17,-14 7,-3 17,-4 31,-4 18,0 31,3 39,10 9,7 13,16 13,29 l 0,70 -39,0 0,-54 c 0,-10 -2,-16 -6,-19 -4,-3 -13,-5 -25,-5 -11,0 -19,2 -24,6 -5,4 -7,11 -7,20 l 0,52 z m 204,-47 -24,0 c -7,0 -12,1 -15,3 -3,2 -4,5 -4,9 0,4 1,6 4,8 3,2 8,2 15,2 l 24,0 c 7,0 12,-1 15,-3 3,-2 4,-5 4,-9 0,-4 -1,-7 -4,-8 -3,-2 -8,-2 -15,-2 z m 59,47 -39,0 0,-13 c -4,5 -10,9 -18,11 -8,2 -19,3 -32,3 -20,0 -33,-3 -41,-8 -7,-5 -11,-15 -11,-28 0,-13 4,-23 11,-28 8,-5 22,-8 43,-8 12,0 22,1 29,2 8,2 14,4 18,7 l 0,-12 c 0,-4 -1,-7 -4,-9 -3,-2 -6,-3 -11,-3 l -32,0 c -4,0 -7,1 -9,2 -2,1 -3,3 -3,6 l -39,0 0,-1 c 0,-11 4,-19 13,-25 8,-5 22,-8 42,-8 l 38,0 c 15,0 26,3 33,9 7,6 11,15 11,27 l 0,74 z m 66,0 -39,0 0,-152 39,0 0,152 z m 279,-97 0,-2 c 0,-6 -2,-10 -6,-13 -4,-3 -10,-4 -19,-4 l -37,0 c -16,0 -26,2 -31,6 -5,4 -7,12 -7,24 l 0,21 c 0,11 3,19 8,23 5,4 15,6 30,6 l 27,0 c 15,0 24,-1 29,-4 5,-3 7,-8 7,-17 l 0,-2 47,0 c 0,0 0,1 0,1 0,4 0,8 0,10 0,10 -1,18 -4,24 -2,6 -6,11 -12,15 -5,4 -12,6 -20,8 -8,2 -20,2 -36,2 l -52,0 c -16,0 -28,-1 -35,-3 -7,-2 -14,-5 -19,-9 -6,-5 -11,-11 -13,-18 -3,-7 -4,-16 -4,-27 l 0,-42 c 0,-22 5,-37 16,-46 10,-9 29,-13 56,-13 l 52,0 c 17,0 29,1 37,2 8,2 14,4 19,8 5,4 8,9 11,15 2,6 3,14 3,23 0,2 0,4 0,5 0,1 0,2 0,3 l -47,0 z m 134,70 18,0 c 9,0 16,-1 20,-4 4,-3 6,-8 6,-15 l 0,-14 c 0,-7 -2,-12 -6,-15 -4,-3 -10,-4 -19,-4 l -18,0 c -10,0 -16,1 -20,4 -4,3 -5,8 -5,15 l 0,14 c 0,7 2,12 6,15 4,3 10,4 20,4 z m -10,29 c -19,0 -33,-3 -41,-9 -8,-6 -12,-16 -12,-30 l 0,-29 c 0,-15 4,-26 12,-32 8,-6 22,-9 42,-9 l 39,0 c 19,0 33,3 41,9 8,6 13,17 13,31 l 0,30 c 0,15 -4,25 -12,31 -8,6 -22,9 -41,9 l -39,0 z m 157,-1 -39,0 0,-107 39,0 0,17 c 4,-7 10,-11 17,-14 7,-3 17,-4 31,-4 18,0 31,3 39,10 9,7 13,16 13,29 l 0,70 -39,0 0,-54 c 0,-10 -2,-16 -6,-19 -4,-3 -13,-5 -25,-5 -11,0 -19,2 -24,6 -5,4 -7,11 -7,20 l 0,52 z m 141,-80 -22,0 0,-28 22,0 0,-26 39,0 0,26 61,0 0,28 -61,0 0,37 c 0,6 1,10 3,12 2,2 6,3 12,3 6,0 11,-1 13,-3 2,-2 4,-6 4,-12 0,-1 0,-3 0,-6 0,0 0,0 0,-1 l 34,0 c 0,1 0,2 0,4 0,1 0,3 0,6 0,15 -4,25 -13,32 -9,6 -22,10 -42,10 -19,0 -32,-3 -39,-8 -8,-6 -11,-15 -11,-29 l 0,-44 z m 201,33 -24,0 c -7,0 -12,1 -15,3 -3,2 -4,5 -4,9 0,4 1,6 4,8 3,2 8,2 15,2 l 24,0 c 7,0 12,-1 15,-3 3,-2 4,-5 4,-9 0,-4 -1,-7 -4,-8 -3,-2 -8,-2 -15,-2 z m 59,47 -39,0 0,-13 c -4,5 -10,9 -18,11 -8,2 -19,3 -32,3 -20,0 -33,-3 -41,-8 -7,-5 -11,-15 -11,-28 0,-13 4,-23 11,-28 8,-5 22,-8 43,-8 12,0 22,1 29,2 8,2 14,4 18,7 l 0,-12 c 0,-4 -1,-7 -4,-9 -3,-2 -6,-3 -11,-3 l -32,0 c -4,0 -7,1 -9,2 -2,1 -3,3 -3,6 l -39,0 0,-1 c 0,-11 4,-19 13,-25 8,-5 22,-8 42,-8 l 38,0 c 15,0 26,3 33,9 7,6 11,15 11,27 l 0,74 z m 73,1 c -18,0 -31,-3 -39,-9 -8,-6 -12,-16 -12,-30 l 0,-29 c 0,-16 4,-26 11,-33 8,-6 21,-9 40,-9 l 37,0 c 18,0 31,3 39,9 8,6 13,15 13,28 0,1 0,3 0,4 0,1 0,3 -1,5 l -37,0 0,-1 c 0,-6 -2,-10 -5,-12 -3,-2 -9,-4 -16,-4 l -19,0 c -9,0 -15,1 -18,4 -3,3 -5,8 -5,15 l 0,14 c 0,7 2,12 5,15 4,3 10,4 18,4 l 17,0 c 10,0 16,-1 19,-4 3,-2 5,-7 5,-14 l 39,0 c 0,1 0,2 0,3 0,1 0,2 0,4 0,14 -4,25 -12,31 -8,6 -22,9 -41,9 l -37,0 z m 127,-81 -22,0 0,-28 22,0 0,-26 39,0 0,26 61,0 0,28 -61,0 0,37 c 0,6 1,10 3,12 2,2 6,3 12,3 6,0 11,-1 13,-3 2,-2 4,-6 4,-12 0,-1 0,-3 0,-6 0,0 0,0 0,-1 l 34,0 c 0,1 0,2 0,4 0,1 0,3 0,6 0,15 -4,25 -13,32 -9,6 -22,10 -42,10 -19,0 -32,-3 -39,-8 -8,-6 -11,-15 -11,-29 l 0,-44 z m 435,80 -68,0 -91,-111 0,111 -46,0 0,-152 69,0 91,112 0,-112 46,0 0,152 z m 130,-108 39,0 0,108 -39,0 0,-17 c -4,7 -10,11 -17,14 -7,3 -17,4 -32,4 -18,0 -31,-3 -40,-10 -9,-7 -13,-17 -13,-30 l 0,-69 39,0 0,55 c 0,9 2,15 6,18 4,3 12,5 23,5 13,0 21,-2 26,-6 5,-4 7,-10 7,-20 l 0,-53 z m 108,108 -39,0 0,-107 39,0 0,17 c 4,-7 9,-11 15,-14 6,-3 15,-4 27,-4 14,0 25,2 32,6 8,4 13,10 15,19 4,-9 9,-15 16,-19 7,-4 16,-6 28,-6 18,0 31,3 40,10 9,6 13,16 13,30 l 0,70 -39,0 0,-54 c 0,-10 -2,-16 -6,-19 -4,-3 -11,-5 -21,-5 -10,0 -17,2 -21,6 -4,4 -6,10 -6,19 l 0,53 -39,0 0,-54 c 0,-10 -2,-16 -6,-19 -4,-3 -11,-5 -22,-5 -10,0 -17,2 -21,6 -4,4 -7,10 -7,19 l 0,53 z m 279,-28 18,0 c 9,0 15,-1 19,-4 4,-3 5,-8 5,-14 l 0,-13 c 0,-7 -2,-11 -6,-14 -4,-3 -10,-4 -19,-4 l -18,0 c -9,0 -16,1 -19,4 -4,3 -5,8 -5,15 l 0,13 c 0,7 2,11 6,14 4,3 10,4 19,4 z m -24,-60 c 2,-7 7,-12 14,-15 7,-3 19,-5 35,-5 20,0 35,3 43,9 8,6 13,16 13,29 l 0,36 c 0,13 -4,22 -13,28 -8,5 -23,8 -44,8 -17,0 -29,-2 -36,-5 -7,-3 -11,-9 -12,-16 l 0,19 -39,0 0,-152 39,0 0,65 z m 226,52 37,0 0,2 c 0,13 -4,22 -12,27 -8,6 -20,8 -38,8 l -36,0 c -16,0 -29,-3 -37,-10 -9,-7 -13,-17 -13,-29 l 0,-29 c 0,-14 4,-24 13,-31 9,-7 21,-11 37,-11 l 36,0 c 16,0 29,4 37,11 9,7 13,18 13,31 l 0,23 -97,0 c 0,0 0,1 0,2 0,1 0,1 0,1 0,6 2,11 5,13 4,3 10,4 18,4 l 16,0 c 8,0 14,-1 16,-2 3,-2 4,-5 5,-9 z m -61,-32 60,0 0,0 c 0,-5 -2,-9 -5,-11 -3,-2 -9,-3 -17,-3 l -16,0 c -8,0 -14,1 -17,3 -3,2 -5,6 -5,11 l 0,0 z m 164,-19 c 4,-8 9,-13 15,-17 6,-3 14,-5 24,-5 15,0 26,3 32,10 6,6 9,17 9,32 0,2 0,6 0,10 l 0,1 -34,0 0,-2 c 0,-6 -2,-11 -5,-14 -4,-3 -9,-5 -16,-5 -8,0 -14,2 -18,5 -4,3 -6,8 -6,15 l 0,57 -39,0 0,-108 39,0 0,20 z m -2695,185 c 15,0 26,1 33,2 7,2 13,4 17,8 5,4 8,10 10,18 2,7 3,17 3,29 l 0,42 c 0,12 -1,21 -3,29 -2,8 -6,13 -10,18 -4,4 -10,7 -17,8 -7,2 -18,2 -33,2 l -47,0 c -15,0 -26,-1 -33,-2 -7,-2 -13,-4 -17,-8 -5,-4 -8,-10 -11,-17 -2,-7 -3,-17 -3,-28 l 0,-42 c 0,-13 1,-23 3,-30 2,-7 6,-13 11,-18 4,-4 10,-7 17,-8 7,-2 18,-2 32,-2 l 47,0 z m -12,36 -22,0 c -12,0 -21,2 -25,6 -4,4 -6,13 -6,25 l 0,22 c 0,12 2,20 6,24 4,4 12,6 24,6 l 22,0 c 12,0 20,-2 24,-6 4,-4 6,-12 6,-25 l 0,-23 c 0,-12 -2,-21 -6,-25 -4,-4 -12,-6 -24,-6 z m 132,41 c -9,-1 -15,-5 -19,-11 -4,-6 -6,-15 -6,-26 0,-15 3,-26 10,-31 7,-6 20,-8 40,-8 l 75,0 c 20,0 33,3 40,8 7,6 10,16 10,31 0,12 -2,20 -6,26 -4,6 -10,9 -19,11 9,2 16,6 20,11 4,6 6,14 6,26 0,16 -4,27 -12,33 -8,6 -24,9 -48,9 l -57,0 c -14,0 -24,-1 -31,-2 -7,-1 -12,-3 -16,-6 -4,-3 -7,-7 -9,-13 -2,-5 -3,-12 -3,-21 0,-12 2,-20 6,-26 4,-6 10,-9 20,-11 z m 86,15 -47,0 c -7,0 -13,1 -16,4 -3,2 -5,6 -5,12 0,5 2,9 5,11 3,2 8,3 16,3 l 47,0 c 7,0 12,-1 16,-4 3,-2 5,-6 5,-11 0,-5 -2,-9 -5,-11 -3,-2 -8,-3 -16,-3 z m 0,-59 -46,0 c -7,0 -12,1 -16,3 -3,2 -5,6 -5,10 0,5 2,8 5,10 3,2 8,3 16,3 l 46,0 c 7,0 12,-1 16,-3 3,-2 5,-6 5,-11 0,-5 -2,-8 -5,-10 -3,-2 -8,-3 -16,-3 z m 171,122 -54,0 94,-115 -115,0 0,-38 172,0 0,36 -96,117 z m 362,0 -45,0 0,-115 -52,35 -22,-32 67,-41 52,0 0,152 z"
           class="fil41" />
        <path
           style="fill:#727376;fill-rule:nonzero"
           inkscape:connector-curvature="0"
           id="path430"
           d="m 4003,6131 42,0 0,2 c 0,5 2,8 5,10 4,2 10,3 19,3 l 46,0 c 7,0 12,-1 15,-3 3,-2 4,-6 4,-11 l 0,-9 c 0,-4 -2,-7 -5,-9 -4,-2 -9,-3 -17,-3 l -51,0 c -4,0 -8,1 -10,2 -2,1 -4,3 -5,6 l -39,0 0,-92 165,0 0,35 -125,0 0,25 c 3,-3 8,-6 13,-7 6,-2 13,-2 24,-2 l 42,0 c 18,0 31,3 40,9 8,6 13,15 13,28 l 0,26 c 0,15 -5,26 -14,32 -9,7 -25,10 -46,10 l -54,0 c -24,0 -40,-3 -49,-9 -9,-6 -14,-17 -14,-32 0,-2 0,-4 0,-5 0,-1 0,-2 0,-3 z m 314,-107 c 15,0 26,1 33,2 7,2 13,4 17,8 5,4 8,10 10,18 2,7 3,17 3,29 l 0,42 c 0,12 -1,21 -3,29 -2,8 -6,13 -10,18 -4,4 -10,7 -17,8 -7,2 -18,2 -33,2 l -47,0 c -15,0 -26,-1 -33,-2 -7,-2 -13,-4 -17,-8 -5,-4 -8,-10 -11,-17 -2,-7 -3,-17 -3,-28 l 0,-42 c 0,-13 1,-23 3,-30 2,-7 6,-13 11,-18 4,-4 10,-7 17,-8 7,-2 18,-2 32,-2 l 47,0 z m -12,36 -22,0 c -12,0 -21,2 -25,6 -4,4 -6,13 -6,25 l 0,22 c 0,12 2,20 6,24 4,4 12,6 24,6 l 22,0 c 12,0 20,-2 24,-6 4,-4 6,-12 6,-25 l 0,-23 c 0,-12 -2,-21 -6,-25 -4,-4 -12,-6 -24,-6 z m 286,119 -54,0 94,-115 -115,0 0,-38 172,0 0,36 -96,117 z m 238,-154 c 15,0 26,1 33,2 7,2 13,4 17,8 5,4 8,10 10,18 2,7 3,17 3,29 l 0,42 c 0,12 -1,21 -3,29 -2,8 -6,13 -10,18 -4,4 -10,7 -17,8 -7,2 -18,2 -33,2 l -47,0 c -15,0 -26,-1 -33,-2 -7,-2 -13,-4 -17,-8 -5,-4 -8,-10 -11,-17 -2,-7 -3,-17 -3,-28 l 0,-42 c 0,-13 1,-23 3,-30 2,-7 6,-13 11,-18 4,-4 10,-7 17,-8 7,-2 18,-2 32,-2 l 47,0 z m -12,36 -22,0 c -12,0 -21,2 -25,6 -4,4 -6,13 -6,25 l 0,22 c 0,12 2,20 6,24 4,4 12,6 24,6 l 22,0 c 12,0 20,-2 24,-6 4,-4 6,-12 6,-25 l 0,-23 c 0,-12 -2,-21 -6,-25 -4,-4 -12,-6 -24,-6 z m 132,41 c -9,-1 -15,-5 -19,-11 -4,-6 -6,-15 -6,-26 0,-15 3,-26 10,-31 7,-6 20,-8 40,-8 l 75,0 c 20,0 33,3 40,8 7,6 10,16 10,31 0,12 -2,20 -6,26 -4,6 -10,9 -19,11 9,2 16,6 20,11 4,6 6,14 6,26 0,16 -4,27 -12,33 -8,6 -24,9 -48,9 l -57,0 c -14,0 -24,-1 -31,-2 -7,-1 -12,-3 -16,-6 -4,-3 -7,-7 -9,-13 -2,-5 -3,-12 -3,-21 0,-12 2,-20 6,-26 4,-6 10,-9 20,-11 z m 86,15 -47,0 c -7,0 -13,1 -16,4 -3,2 -5,6 -5,12 0,5 2,9 5,11 3,2 8,3 16,3 l 47,0 c 7,0 12,-1 16,-4 3,-2 5,-6 5,-11 0,-5 -2,-9 -5,-11 -3,-2 -8,-3 -16,-3 z m 0,-59 -46,0 c -7,0 -12,1 -16,3 -3,2 -5,6 -5,10 0,5 2,8 5,10 3,2 8,3 16,3 l 46,0 c 7,0 12,-1 16,-3 3,-2 5,-6 5,-11 0,-5 -2,-8 -5,-10 -3,-2 -8,-3 -16,-3 z m 205,-33 c 15,0 26,1 33,2 7,2 13,4 17,8 5,4 8,10 10,18 2,7 3,17 3,29 l 0,42 c 0,12 -1,21 -3,29 -2,8 -6,13 -10,18 -4,4 -10,7 -17,8 -7,2 -18,2 -33,2 l -47,0 c -15,0 -26,-1 -33,-2 -7,-2 -13,-4 -17,-8 -5,-4 -8,-10 -11,-17 -2,-7 -3,-17 -3,-28 l 0,-42 c 0,-13 1,-23 3,-30 2,-7 6,-13 11,-18 4,-4 10,-7 17,-8 7,-2 18,-2 32,-2 l 47,0 z m -12,36 -22,0 c -12,0 -21,2 -25,6 -4,4 -6,13 -6,25 l 0,22 c 0,12 2,20 6,24 4,4 12,6 24,6 l 22,0 c 12,0 20,-2 24,-6 4,-4 6,-12 6,-25 l 0,-23 c 0,-12 -2,-21 -6,-25 -4,-4 -12,-6 -24,-6 z"
           class="fil41" />
      </g>
      <g
         id="_360518432">
        <path
           style="fill:#2957a4;fill-rule:nonzero"
           inkscape:connector-curvature="0"
           id="path433"
           d="m 2697,5666 -41,-108 43,0 25,76 28,-76 35,0 27,76 27,-76 41,0 -42,108 -50,0 -21,-60 -22,60 -50,0 z m 230,0 -41,-108 43,0 25,76 28,-76 35,0 27,76 27,-76 41,0 -42,108 -50,0 -21,-60 -22,60 -50,0 z m 230,0 -41,-108 43,0 25,76 28,-76 35,0 27,76 27,-76 41,0 -42,108 -50,0 -21,-60 -22,60 -50,0 z m 248,0 -43,0 0,-43 43,0 0,43 z m 91,0 -39,0 0,-78 -19,0 0,-29 19,0 0,-3 c 0,-15 4,-26 11,-32 7,-6 19,-9 37,-9 l 25,0 0,27 c 0,0 -1,0 -1,0 -4,0 -7,0 -9,0 -8,0 -14,1 -18,3 -4,2 -5,6 -5,11 0,1 0,2 0,2 0,1 0,1 0,1 l 36,0 0,29 -36,0 0,78 z m 151,-108 39,0 0,108 -39,0 0,-17 c -4,7 -10,11 -17,14 -7,3 -17,4 -32,4 -18,0 -31,-3 -40,-10 -9,-7 -13,-17 -13,-30 l 0,-69 39,0 0,55 c 0,9 2,15 6,18 4,3 12,5 23,5 13,0 21,-2 26,-6 5,-4 7,-10 7,-20 l 0,-53 z m 164,72 37,0 0,2 c 0,13 -4,22 -12,27 -8,6 -20,8 -38,8 l -36,0 c -16,0 -29,-3 -37,-10 -9,-7 -13,-17 -13,-29 l 0,-29 c 0,-14 4,-24 13,-31 9,-7 21,-11 37,-11 l 36,0 c 16,0 29,4 37,11 9,7 13,18 13,31 l 0,23 -97,0 c 0,0 0,1 0,2 0,1 0,1 0,1 0,6 2,11 5,13 4,3 10,4 18,4 l 16,0 c 8,0 14,-1 16,-2 3,-2 4,-5 5,-9 z m -61,-32 60,0 0,0 c 0,-5 -2,-9 -5,-11 -3,-2 -9,-3 -17,-3 l -16,0 c -8,0 -14,1 -17,3 -3,2 -5,6 -5,11 l 0,0 z m 164,68 -39,0 0,-152 39,0 0,152 z m 42,-80 -22,0 0,-28 22,0 0,-26 39,0 0,26 61,0 0,28 -61,0 0,37 c 0,6 1,10 3,12 2,2 6,3 12,3 6,0 11,-1 13,-3 2,-2 4,-6 4,-12 0,-1 0,-3 0,-6 0,0 0,0 0,-1 l 34,0 c 0,1 0,2 0,4 0,1 0,3 0,6 0,15 -4,25 -13,32 -9,6 -22,10 -42,10 -19,0 -32,-3 -39,-8 -8,-6 -11,-15 -11,-29 l 0,-44 z m 167,-8 c 4,-8 9,-13 15,-17 6,-3 14,-5 24,-5 15,0 26,3 32,10 6,6 9,17 9,32 0,2 0,6 0,10 l 0,1 -34,0 0,-2 c 0,-6 -2,-11 -5,-14 -4,-3 -9,-5 -16,-5 -8,0 -14,2 -18,5 -4,3 -6,8 -6,15 l 0,57 -39,0 0,-108 39,0 0,20 z m 157,60 18,0 c 9,0 16,-1 20,-4 4,-3 6,-8 6,-15 l 0,-14 c 0,-7 -2,-12 -6,-15 -4,-3 -10,-4 -19,-4 l -18,0 c -10,0 -16,1 -20,4 -4,3 -5,8 -5,15 l 0,14 c 0,7 2,12 6,15 4,3 10,4 20,4 z m -10,29 c -19,0 -33,-3 -41,-9 -8,-6 -12,-16 -12,-30 l 0,-29 c 0,-15 4,-26 12,-32 8,-6 22,-9 42,-9 l 39,0 c 19,0 33,3 41,9 8,6 13,17 13,31 l 0,30 c 0,15 -4,25 -12,31 -8,6 -22,9 -41,9 l -39,0 z m 157,-1 -39,0 0,-107 39,0 0,17 c 4,-7 10,-11 17,-14 7,-3 17,-4 31,-4 18,0 31,3 39,10 9,7 13,16 13,29 l 0,70 -39,0 0,-54 c 0,-10 -2,-16 -6,-19 -4,-3 -13,-5 -25,-5 -11,0 -19,2 -24,6 -5,4 -7,11 -7,20 l 0,52 z m 170,-121 -39,0 0,-32 39,0 0,32 z m 0,121 -39,0 0,-108 39,0 0,108 z m 79,1 c -18,0 -31,-3 -39,-9 -8,-6 -12,-16 -12,-30 l 0,-29 c 0,-16 4,-26 11,-33 8,-6 21,-9 40,-9 l 37,0 c 18,0 31,3 39,9 8,6 13,15 13,28 0,1 0,3 0,4 0,1 0,3 -1,5 l -37,0 0,-1 c 0,-6 -2,-10 -5,-12 -3,-2 -9,-4 -16,-4 l -19,0 c -9,0 -15,1 -18,4 -3,3 -5,8 -5,15 l 0,14 c 0,7 2,12 5,15 4,3 10,4 18,4 l 17,0 c 10,0 16,-1 19,-4 3,-2 5,-7 5,-14 l 39,0 c 0,1 0,2 0,3 0,1 0,2 0,4 0,14 -4,25 -12,31 -8,6 -22,9 -41,9 l -37,0 z m 174,-1 -43,0 0,-43 43,0 0,43 z m 92,1 c -18,0 -31,-3 -39,-9 -8,-6 -12,-16 -12,-30 l 0,-29 c 0,-16 4,-26 11,-33 8,-6 21,-9 40,-9 l 37,0 c 18,0 31,3 39,9 8,6 13,15 13,28 0,1 0,3 0,4 0,1 0,3 -1,5 l -37,0 0,-1 c 0,-6 -2,-10 -5,-12 -3,-2 -9,-4 -16,-4 l -19,0 c -9,0 -15,1 -18,4 -3,3 -5,8 -5,15 l 0,14 c 0,7 2,12 5,15 4,3 10,4 18,4 l 17,0 c 10,0 16,-1 19,-4 3,-2 5,-7 5,-14 l 39,0 c 0,1 0,2 0,3 0,1 0,2 0,4 0,14 -4,25 -12,31 -8,6 -22,9 -41,9 l -37,0 z m 176,-29 18,0 c 9,0 16,-1 20,-4 4,-3 6,-8 6,-15 l 0,-14 c 0,-7 -2,-12 -6,-15 -4,-3 -10,-4 -19,-4 l -18,0 c -10,0 -16,1 -20,4 -4,3 -5,8 -5,15 l 0,14 c 0,7 2,12 6,15 4,3 10,4 20,4 z m -10,29 c -19,0 -33,-3 -41,-9 -8,-6 -12,-16 -12,-30 l 0,-29 c 0,-15 4,-26 12,-32 8,-6 22,-9 42,-9 l 39,0 c 19,0 33,3 41,9 8,6 13,17 13,31 l 0,30 c 0,15 -4,25 -12,31 -8,6 -22,9 -41,9 l -39,0 z m 176,-1 -43,0 0,-43 43,0 0,43 z m 157,0 -122,0 0,-27 65,-51 -61,0 0,-30 116,0 0,30 -62,49 64,0 0,29 z m 94,-47 -24,0 c -7,0 -12,1 -15,3 -3,2 -4,5 -4,9 0,4 1,6 4,8 3,2 8,2 15,2 l 24,0 c 7,0 12,-1 15,-3 3,-2 4,-5 4,-9 0,-4 -1,-7 -4,-8 -3,-2 -8,-2 -15,-2 z m 59,47 -39,0 0,-13 c -4,5 -10,9 -18,11 -8,2 -19,3 -32,3 -20,0 -33,-3 -41,-8 -7,-5 -11,-15 -11,-28 0,-13 4,-23 11,-28 8,-5 22,-8 43,-8 12,0 22,1 29,2 8,2 14,4 18,7 l 0,-12 c 0,-4 -1,-7 -4,-9 -3,-2 -6,-3 -11,-3 l -32,0 c -4,0 -7,1 -9,2 -2,1 -3,3 -3,6 l -39,0 0,-1 c 0,-11 4,-19 13,-25 8,-5 22,-8 42,-8 l 38,0 c 15,0 26,3 33,9 7,6 11,15 11,27 l 0,74 z m -3071,251 -68,0 -91,-111 0,111 -46,0 0,-152 69,0 91,112 0,-112 46,0 0,152 z m 104,-47 -24,0 c -7,0 -12,1 -15,3 -3,2 -4,5 -4,9 0,4 1,6 4,8 3,2 8,2 15,2 l 24,0 c 7,0 12,-1 15,-3 3,-2 4,-5 4,-9 0,-4 -1,-7 -4,-8 -3,-2 -8,-2 -15,-2 z m 59,47 -39,0 0,-13 c -4,5 -10,9 -18,11 -8,2 -19,3 -32,3 -20,0 -33,-3 -41,-8 -7,-5 -11,-15 -11,-28 0,-13 4,-23 11,-28 8,-5 22,-8 43,-8 12,0 22,1 29,2 8,2 14,4 18,7 l 0,-12 c 0,-4 -1,-7 -4,-9 -3,-2 -6,-3 -11,-3 l -32,0 c -4,0 -7,1 -9,2 -2,1 -3,3 -3,6 l -39,0 0,-1 c 0,-11 4,-19 13,-25 8,-5 22,-8 42,-8 l 38,0 c 15,0 26,3 33,9 7,6 11,15 11,27 l 0,74 z m 37,-80 -22,0 0,-28 22,0 0,-26 39,0 0,26 61,0 0,28 -61,0 0,37 c 0,6 1,10 3,12 2,2 6,3 12,3 6,0 11,-1 13,-3 2,-2 4,-6 4,-12 0,-1 0,-3 0,-6 0,0 0,0 0,-1 l 34,0 c 0,1 0,2 0,4 0,1 0,3 0,6 0,15 -4,25 -13,32 -9,6 -22,10 -42,10 -19,0 -32,-3 -39,-8 -8,-6 -11,-15 -11,-29 l 0,-44 z m 167,-41 -39,0 0,-32 39,0 0,32 z m 0,121 -39,0 0,-108 39,0 0,108 z m 91,-28 18,0 c 9,0 16,-1 20,-4 4,-3 6,-8 6,-15 l 0,-14 c 0,-7 -2,-12 -6,-15 -4,-3 -10,-4 -19,-4 l -18,0 c -10,0 -16,1 -20,4 -4,3 -5,8 -5,15 l 0,14 c 0,7 2,12 6,15 4,3 10,4 20,4 z m -10,29 c -19,0 -33,-3 -41,-9 -8,-6 -12,-16 -12,-30 l 0,-29 c 0,-15 4,-26 12,-32 8,-6 22,-9 42,-9 l 39,0 c 19,0 33,3 41,9 8,6 13,17 13,31 l 0,30 c 0,15 -4,25 -12,31 -8,6 -22,9 -41,9 l -39,0 z m 157,-1 -39,0 0,-107 39,0 0,17 c 4,-7 10,-11 17,-14 7,-3 17,-4 31,-4 18,0 31,3 39,10 9,7 13,16 13,29 l 0,70 -39,0 0,-54 c 0,-10 -2,-16 -6,-19 -4,-3 -13,-5 -25,-5 -11,0 -19,2 -24,6 -5,4 -7,11 -7,20 l 0,52 z m 204,-47 -24,0 c -7,0 -12,1 -15,3 -3,2 -4,5 -4,9 0,4 1,6 4,8 3,2 8,2 15,2 l 24,0 c 7,0 12,-1 15,-3 3,-2 4,-5 4,-9 0,-4 -1,-7 -4,-8 -3,-2 -8,-2 -15,-2 z m 59,47 -39,0 0,-13 c -4,5 -10,9 -18,11 -8,2 -19,3 -32,3 -20,0 -33,-3 -41,-8 -7,-5 -11,-15 -11,-28 0,-13 4,-23 11,-28 8,-5 22,-8 43,-8 12,0 22,1 29,2 8,2 14,4 18,7 l 0,-12 c 0,-4 -1,-7 -4,-9 -3,-2 -6,-3 -11,-3 l -32,0 c -4,0 -7,1 -9,2 -2,1 -3,3 -3,6 l -39,0 0,-1 c 0,-11 4,-19 13,-25 8,-5 22,-8 42,-8 l 38,0 c 15,0 26,3 33,9 7,6 11,15 11,27 l 0,74 z m 66,0 -39,0 0,-152 39,0 0,152 z m 279,-97 0,-2 c 0,-6 -2,-10 -6,-13 -4,-3 -10,-4 -19,-4 l -37,0 c -16,0 -26,2 -31,6 -5,4 -7,12 -7,24 l 0,21 c 0,11 3,19 8,23 5,4 15,6 30,6 l 27,0 c 15,0 24,-1 29,-4 5,-3 7,-8 7,-17 l 0,-2 47,0 c 0,0 0,1 0,1 0,4 0,8 0,10 0,10 -1,18 -4,24 -2,6 -6,11 -12,15 -5,4 -12,6 -20,8 -8,2 -20,2 -36,2 l -52,0 c -16,0 -28,-1 -35,-3 -7,-2 -14,-5 -19,-9 -6,-5 -11,-11 -13,-18 -3,-7 -4,-16 -4,-27 l 0,-42 c 0,-22 5,-37 16,-46 10,-9 29,-13 56,-13 l 52,0 c 17,0 29,1 37,2 8,2 14,4 19,8 5,4 8,9 11,15 2,6 3,14 3,23 0,2 0,4 0,5 0,1 0,2 0,3 l -47,0 z m 134,70 18,0 c 9,0 16,-1 20,-4 4,-3 6,-8 6,-15 l 0,-14 c 0,-7 -2,-12 -6,-15 -4,-3 -10,-4 -19,-4 l -18,0 c -10,0 -16,1 -20,4 -4,3 -5,8 -5,15 l 0,14 c 0,7 2,12 6,15 4,3 10,4 20,4 z m -10,29 c -19,0 -33,-3 -41,-9 -8,-6 -12,-16 -12,-30 l 0,-29 c 0,-15 4,-26 12,-32 8,-6 22,-9 42,-9 l 39,0 c 19,0 33,3 41,9 8,6 13,17 13,31 l 0,30 c 0,15 -4,25 -12,31 -8,6 -22,9 -41,9 l -39,0 z m 157,-1 -39,0 0,-107 39,0 0,17 c 4,-7 10,-11 17,-14 7,-3 17,-4 31,-4 18,0 31,3 39,10 9,7 13,16 13,29 l 0,70 -39,0 0,-54 c 0,-10 -2,-16 -6,-19 -4,-3 -13,-5 -25,-5 -11,0 -19,2 -24,6 -5,4 -7,11 -7,20 l 0,52 z m 141,-80 -22,0 0,-28 22,0 0,-26 39,0 0,26 61,0 0,28 -61,0 0,37 c 0,6 1,10 3,12 2,2 6,3 12,3 6,0 11,-1 13,-3 2,-2 4,-6 4,-12 0,-1 0,-3 0,-6 0,0 0,0 0,-1 l 34,0 c 0,1 0,2 0,4 0,1 0,3 0,6 0,15 -4,25 -13,32 -9,6 -22,10 -42,10 -19,0 -32,-3 -39,-8 -8,-6 -11,-15 -11,-29 l 0,-44 z m 201,33 -24,0 c -7,0 -12,1 -15,3 -3,2 -4,5 -4,9 0,4 1,6 4,8 3,2 8,2 15,2 l 24,0 c 7,0 12,-1 15,-3 3,-2 4,-5 4,-9 0,-4 -1,-7 -4,-8 -3,-2 -8,-2 -15,-2 z m 59,47 -39,0 0,-13 c -4,5 -10,9 -18,11 -8,2 -19,3 -32,3 -20,0 -33,-3 -41,-8 -7,-5 -11,-15 -11,-28 0,-13 4,-23 11,-28 8,-5 22,-8 43,-8 12,0 22,1 29,2 8,2 14,4 18,7 l 0,-12 c 0,-4 -1,-7 -4,-9 -3,-2 -6,-3 -11,-3 l -32,0 c -4,0 -7,1 -9,2 -2,1 -3,3 -3,6 l -39,0 0,-1 c 0,-11 4,-19 13,-25 8,-5 22,-8 42,-8 l 38,0 c 15,0 26,3 33,9 7,6 11,15 11,27 l 0,74 z m 73,1 c -18,0 -31,-3 -39,-9 -8,-6 -12,-16 -12,-30 l 0,-29 c 0,-16 4,-26 11,-33 8,-6 21,-9 40,-9 l 37,0 c 18,0 31,3 39,9 8,6 13,15 13,28 0,1 0,3 0,4 0,1 0,3 -1,5 l -37,0 0,-1 c 0,-6 -2,-10 -5,-12 -3,-2 -9,-4 -16,-4 l -19,0 c -9,0 -15,1 -18,4 -3,3 -5,8 -5,15 l 0,14 c 0,7 2,12 5,15 4,3 10,4 18,4 l 17,0 c 10,0 16,-1 19,-4 3,-2 5,-7 5,-14 l 39,0 c 0,1 0,2 0,3 0,1 0,2 0,4 0,14 -4,25 -12,31 -8,6 -22,9 -41,9 l -37,0 z m 127,-81 -22,0 0,-28 22,0 0,-26 39,0 0,26 61,0 0,28 -61,0 0,37 c 0,6 1,10 3,12 2,2 6,3 12,3 6,0 11,-1 13,-3 2,-2 4,-6 4,-12 0,-1 0,-3 0,-6 0,0 0,0 0,-1 l 34,0 c 0,1 0,2 0,4 0,1 0,3 0,6 0,15 -4,25 -13,32 -9,6 -22,10 -42,10 -19,0 -32,-3 -39,-8 -8,-6 -11,-15 -11,-29 l 0,-44 z m 435,80 -68,0 -91,-111 0,111 -46,0 0,-152 69,0 91,112 0,-112 46,0 0,152 z m 130,-108 39,0 0,108 -39,0 0,-17 c -4,7 -10,11 -17,14 -7,3 -17,4 -32,4 -18,0 -31,-3 -40,-10 -9,-7 -13,-17 -13,-30 l 0,-69 39,0 0,55 c 0,9 2,15 6,18 4,3 12,5 23,5 13,0 21,-2 26,-6 5,-4 7,-10 7,-20 l 0,-53 z m 108,108 -39,0 0,-107 39,0 0,17 c 4,-7 9,-11 15,-14 6,-3 15,-4 27,-4 14,0 25,2 32,6 8,4 13,10 15,19 4,-9 9,-15 16,-19 7,-4 16,-6 28,-6 18,0 31,3 40,10 9,6 13,16 13,30 l 0,70 -39,0 0,-54 c 0,-10 -2,-16 -6,-19 -4,-3 -11,-5 -21,-5 -10,0 -17,2 -21,6 -4,4 -6,10 -6,19 l 0,53 -39,0 0,-54 c 0,-10 -2,-16 -6,-19 -4,-3 -11,-5 -22,-5 -10,0 -17,2 -21,6 -4,4 -7,10 -7,19 l 0,53 z m 279,-28 18,0 c 9,0 15,-1 19,-4 4,-3 5,-8 5,-14 l 0,-13 c 0,-7 -2,-11 -6,-14 -4,-3 -10,-4 -19,-4 l -18,0 c -9,0 -16,1 -19,4 -4,3 -5,8 -5,15 l 0,13 c 0,7 2,11 6,14 4,3 10,4 19,4 z m -24,-60 c 2,-7 7,-12 14,-15 7,-3 19,-5 35,-5 20,0 35,3 43,9 8,6 13,16 13,29 l 0,36 c 0,13 -4,22 -13,28 -8,5 -23,8 -44,8 -17,0 -29,-2 -36,-5 -7,-3 -11,-9 -12,-16 l 0,19 -39,0 0,-152 39,0 0,65 z m 226,52 37,0 0,2 c 0,13 -4,22 -12,27 -8,6 -20,8 -38,8 l -36,0 c -16,0 -29,-3 -37,-10 -9,-7 -13,-17 -13,-29 l 0,-29 c 0,-14 4,-24 13,-31 9,-7 21,-11 37,-11 l 36,0 c 16,0 29,4 37,11 9,7 13,18 13,31 l 0,23 -97,0 c 0,0 0,1 0,2 0,1 0,1 0,1 0,6 2,11 5,13 4,3 10,4 18,4 l 16,0 c 8,0 14,-1 16,-2 3,-2 4,-5 5,-9 z m -61,-32 60,0 0,0 c 0,-5 -2,-9 -5,-11 -3,-2 -9,-3 -17,-3 l -16,0 c -8,0 -14,1 -17,3 -3,2 -5,6 -5,11 l 0,0 z m 164,-19 c 4,-8 9,-13 15,-17 6,-3 14,-5 24,-5 15,0 26,3 32,10 6,6 9,17 9,32 0,2 0,6 0,10 l 0,1 -34,0 0,-2 c 0,-6 -2,-11 -5,-14 -4,-3 -9,-5 -16,-5 -8,0 -14,2 -18,5 -4,3 -6,8 -6,15 l 0,57 -39,0 0,-108 39,0 0,20 z m -2695,185 c 15,0 26,1 33,2 7,2 13,4 17,8 5,4 8,10 10,18 2,7 3,17 3,29 l 0,42 c 0,12 -1,21 -3,29 -2,8 -6,13 -10,18 -4,4 -10,7 -17,8 -7,2 -18,2 -33,2 l -47,0 c -15,0 -26,-1 -33,-2 -7,-2 -13,-4 -17,-8 -5,-4 -8,-10 -11,-17 -2,-7 -3,-17 -3,-28 l 0,-42 c 0,-13 1,-23 3,-30 2,-7 6,-13 11,-18 4,-4 10,-7 17,-8 7,-2 18,-2 32,-2 l 47,0 z m -12,36 -22,0 c -12,0 -21,2 -25,6 -4,4 -6,13 -6,25 l 0,22 c 0,12 2,20 6,24 4,4 12,6 24,6 l 22,0 c 12,0 20,-2 24,-6 4,-4 6,-12 6,-25 l 0,-23 c 0,-12 -2,-21 -6,-25 -4,-4 -12,-6 -24,-6 z m 132,41 c -9,-1 -15,-5 -19,-11 -4,-6 -6,-15 -6,-26 0,-15 3,-26 10,-31 7,-6 20,-8 40,-8 l 75,0 c 20,0 33,3 40,8 7,6 10,16 10,31 0,12 -2,20 -6,26 -4,6 -10,9 -19,11 9,2 16,6 20,11 4,6 6,14 6,26 0,16 -4,27 -12,33 -8,6 -24,9 -48,9 l -57,0 c -14,0 -24,-1 -31,-2 -7,-1 -12,-3 -16,-6 -4,-3 -7,-7 -9,-13 -2,-5 -3,-12 -3,-21 0,-12 2,-20 6,-26 4,-6 10,-9 20,-11 z m 86,15 -47,0 c -7,0 -13,1 -16,4 -3,2 -5,6 -5,12 0,5 2,9 5,11 3,2 8,3 16,3 l 47,0 c 7,0 12,-1 16,-4 3,-2 5,-6 5,-11 0,-5 -2,-9 -5,-11 -3,-2 -8,-3 -16,-3 z m 0,-59 -46,0 c -7,0 -12,1 -16,3 -3,2 -5,6 -5,10 0,5 2,8 5,10 3,2 8,3 16,3 l 46,0 c 7,0 12,-1 16,-3 3,-2 5,-6 5,-11 0,-5 -2,-8 -5,-10 -3,-2 -8,-3 -16,-3 z m 171,122 -54,0 94,-115 -115,0 0,-38 172,0 0,36 -96,117 z m 362,0 -45,0 0,-115 -52,35 -22,-32 67,-41 52,0 0,152 z"
           class="fil42" />
        <path
           style="fill:#2957a4;fill-rule:nonzero"
           inkscape:connector-curvature="0"
           id="path435"
           d="m 3992,6121 42,0 0,2 c 0,5 2,8 5,10 4,2 10,3 19,3 l 46,0 c 7,0 12,-1 15,-3 3,-2 4,-6 4,-11 l 0,-9 c 0,-4 -2,-7 -5,-9 -4,-2 -9,-3 -17,-3 l -51,0 c -4,0 -8,1 -10,2 -2,1 -4,3 -5,6 l -39,0 0,-92 165,0 0,35 -125,0 0,25 c 3,-3 8,-6 13,-7 6,-2 13,-2 24,-2 l 42,0 c 18,0 31,3 40,9 8,6 13,15 13,28 l 0,26 c 0,15 -5,26 -14,32 -9,7 -25,10 -46,10 l -54,0 c -24,0 -40,-3 -49,-9 -9,-6 -14,-17 -14,-32 0,-2 0,-4 0,-5 0,-1 0,-2 0,-3 z m 314,-107 c 15,0 26,1 33,2 7,2 13,4 17,8 5,4 8,10 10,18 2,7 3,17 3,29 l 0,42 c 0,12 -1,21 -3,29 -2,8 -6,13 -10,18 -4,4 -10,7 -17,8 -7,2 -18,2 -33,2 l -47,0 c -15,0 -26,-1 -33,-2 -7,-2 -13,-4 -17,-8 -5,-4 -8,-10 -11,-17 -2,-7 -3,-17 -3,-28 l 0,-42 c 0,-13 1,-23 3,-30 2,-7 6,-13 11,-18 4,-4 10,-7 17,-8 7,-2 18,-2 32,-2 l 47,0 z m -12,36 -22,0 c -12,0 -21,2 -25,6 -4,4 -6,13 -6,25 l 0,22 c 0,12 2,20 6,24 4,4 12,6 24,6 l 22,0 c 12,0 20,-2 24,-6 4,-4 6,-12 6,-25 l 0,-23 c 0,-12 -2,-21 -6,-25 -4,-4 -12,-6 -24,-6 z m 286,119 -54,0 94,-115 -115,0 0,-38 172,0 0,36 -96,117 z m 238,-154 c 15,0 26,1 33,2 7,2 13,4 17,8 5,4 8,10 10,18 2,7 3,17 3,29 l 0,42 c 0,12 -1,21 -3,29 -2,8 -6,13 -10,18 -4,4 -10,7 -17,8 -7,2 -18,2 -33,2 l -47,0 c -15,0 -26,-1 -33,-2 -7,-2 -13,-4 -17,-8 -5,-4 -8,-10 -11,-17 -2,-7 -3,-17 -3,-28 l 0,-42 c 0,-13 1,-23 3,-30 2,-7 6,-13 11,-18 4,-4 10,-7 17,-8 7,-2 18,-2 32,-2 l 47,0 z m -12,36 -22,0 c -12,0 -21,2 -25,6 -4,4 -6,13 -6,25 l 0,22 c 0,12 2,20 6,24 4,4 12,6 24,6 l 22,0 c 12,0 20,-2 24,-6 4,-4 6,-12 6,-25 l 0,-23 c 0,-12 -2,-21 -6,-25 -4,-4 -12,-6 -24,-6 z m 132,41 c -9,-1 -15,-5 -19,-11 -4,-6 -6,-15 -6,-26 0,-15 3,-26 10,-31 7,-6 20,-8 40,-8 l 75,0 c 20,0 33,3 40,8 7,6 10,16 10,31 0,12 -2,20 -6,26 -4,6 -10,9 -19,11 9,2 16,6 20,11 4,6 6,14 6,26 0,16 -4,27 -12,33 -8,6 -24,9 -48,9 l -57,0 c -14,0 -24,-1 -31,-2 -7,-1 -12,-3 -16,-6 -4,-3 -7,-7 -9,-13 -2,-5 -3,-12 -3,-21 0,-12 2,-20 6,-26 4,-6 10,-9 20,-11 z m 86,15 -47,0 c -7,0 -13,1 -16,4 -3,2 -5,6 -5,12 0,5 2,9 5,11 3,2 8,3 16,3 l 47,0 c 7,0 12,-1 16,-4 3,-2 5,-6 5,-11 0,-5 -2,-9 -5,-11 -3,-2 -8,-3 -16,-3 z m 0,-59 -46,0 c -7,0 -12,1 -16,3 -3,2 -5,6 -5,10 0,5 2,8 5,10 3,2 8,3 16,3 l 46,0 c 7,0 12,-1 16,-3 3,-2 5,-6 5,-11 0,-5 -2,-8 -5,-10 -3,-2 -8,-3 -16,-3 z m 205,-33 c 15,0 26,1 33,2 7,2 13,4 17,8 5,4 8,10 10,18 2,7 3,17 3,29 l 0,42 c 0,12 -1,21 -3,29 -2,8 -6,13 -10,18 -4,4 -10,7 -17,8 -7,2 -18,2 -33,2 l -47,0 c -15,0 -26,-1 -33,-2 -7,-2 -13,-4 -17,-8 -5,-4 -8,-10 -11,-17 -2,-7 -3,-17 -3,-28 l 0,-42 c 0,-13 1,-23 3,-30 2,-7 6,-13 11,-18 4,-4 10,-7 17,-8 7,-2 18,-2 32,-2 l 47,0 z m -12,36 -22,0 c -12,0 -21,2 -25,6 -4,4 -6,13 -6,25 l 0,22 c 0,12 2,20 6,24 4,4 12,6 24,6 l 22,0 c 12,0 20,-2 24,-6 4,-4 6,-12 6,-25 l 0,-23 c 0,-12 -2,-21 -6,-25 -4,-4 -12,-6 -24,-6 z"
           class="fil42" />
      </g>
    </g>
  </g>
</svg>
