<?xml version="1.0" encoding="UTF-8" standalone="no"?>
<!-- Created with Inkscape (http://www.inkscape.org/) -->

<svg
   xmlns:dc="http://purl.org/dc/elements/1.1/"
   xmlns:cc="http://creativecommons.org/ns#"
   xmlns:rdf="http://www.w3.org/1999/02/22-rdf-syntax-ns#"
   xmlns:svg="http://www.w3.org/2000/svg"
   xmlns="http://www.w3.org/2000/svg"
   xmlns:xlink="http://www.w3.org/1999/xlink"
   xmlns:sodipodi="http://sodipodi.sourceforge.net/DTD/sodipodi-0.dtd"
   xmlns:inkscape="http://www.inkscape.org/namespaces/inkscape"
   width="670"
   height="190"
   id="svg3536"
   version="1.1"
   inkscape:version="0.48.5 r10040"
   sodipodi:docname="Fueltronic Logo.svg">
  <defs
     id="defs3538">
    <linearGradient
       inkscape:collect="always"
       xlink:href="#id19"
       id="linearGradient3448"
       gradientUnits="userSpaceOnUse"
       x1="1938.8101"
       y1="1652.35"
       x2="412.75601"
       y2="753.06299" />
    <linearGradient
       id="id19"
       gradientUnits="userSpaceOnUse"
       x1="1938.8101"
       y1="1652.35"
       x2="412.75601"
       y2="753.06299">
      <stop
         offset="0"
         style="stop-color:#2957A4"
         id="stop90" />
      <stop
         offset="0.4"
         style="stop-color:#006CB5"
         id="stop92" />
      <stop
         offset="0.729412"
         style="stop-color:#00AFEF"
         id="stop94" />
      <stop
         offset="1"
         style="stop-color:#00AFEF"
         id="stop96" />
    </linearGradient>
    <clipPath
       id="id9">
      <path
         inkscape:connector-curvature="0"
         d="m 1259,1524 c 192,77 355,-63 342,-298 51,79 80,172 80,273 0,279 -226,505 -505,505 -279,0 -505,-226 -505,-505 0,-67 13,-130 36,-188 l 0,0 c 43,-130 126,-248 227,-364 156,-178 235,-362 206,-546 136,214 162,412 93,596 -65,171 -245,418 27,527 z"
         id="path36" />
    </clipPath>
    <linearGradient
       id="id22"
       gradientUnits="userSpaceOnUse"
       x1="878.84302"
       y1="824.98401"
       x2="1755.17"
       y2="1486.37">
      <stop
         offset="0"
         style="stop-color:#2957A4"
         id="stop109" />
      <stop
         offset="0.4"
         style="stop-color:#006CB5"
         id="stop111" />
      <stop
         offset="0.858824"
         style="stop-color:#00AFEF"
         id="stop113" />
      <stop
         offset="1"
         style="stop-color:#00AFEF"
         id="stop115" />
    </linearGradient>
    <linearGradient
       id="id23"
       gradientUnits="userSpaceOnUse"
       x1="1268.34"
       y1="1365.9301"
       x2="1470.96"
       y2="876.26398">
      <stop
         offset="0"
         style="stop-color:#0082C6"
         id="stop118" />
      <stop
         offset="0.34902"
         style="stop-color:#0082C6"
         id="stop120" />
      <stop
         offset="0.760784"
         style="stop-color:#00AFEF"
         id="stop122" />
      <stop
         offset="1"
         style="stop-color:#00AFEF"
         id="stop124" />
    </linearGradient>
    <clipPath
       id="id10">
      <path
         inkscape:connector-curvature="0"
         d="m 1334,790 c 18,127 1,240 -59,339 -97,159 -92,284 36,318 119,32 232,-63 220,-230 -10,-148 -84,-289 -196,-426 z"
         id="path39" />
    </clipPath>
    <linearGradient
       id="id21"
       gradientUnits="userSpaceOnUse"
       x1="1261.76"
       y1="1443.1801"
       x2="1509.51"
       y2="878.84302">
      <stop
         offset="0"
         style="stop-color:#2957A4"
         id="stop100" />
      <stop
         offset="0.4"
         style="stop-color:#006CB5"
         id="stop102" />
      <stop
         offset="0.729412"
         style="stop-color:#00AFEF"
         id="stop104" />
      <stop
         offset="1"
         style="stop-color:#0098DA"
         id="stop106" />
    </linearGradient>
    <linearGradient
       id="id20"
       gradientUnits="userSpaceOnUse"
       xlink:href="#id19"
       x1="3446.0801"
       y1="744.38599"
       x2="2226.8301"
       y2="25.8976" />
    <linearGradient
       id="linearGradient3507"
       gradientUnits="userSpaceOnUse"
       x1="1938.8101"
       y1="1652.35"
       x2="412.75601"
       y2="753.06299">
      <stop
         offset="0"
         style="stop-color:#2957A4"
         id="stop3509" />
      <stop
         offset="0.4"
         style="stop-color:#006CB5"
         id="stop3511" />
      <stop
         offset="0.729412"
         style="stop-color:#00AFEF"
         id="stop3513" />
      <stop
         offset="1"
         style="stop-color:#00AFEF"
         id="stop3515" />
    </linearGradient>
  </defs>
  <sodipodi:namedview
     id="base"
     pagecolor="#ffffff"
     bordercolor="#666666"
     borderopacity="1.0"
     inkscape:pageopacity="0.0"
     inkscape:pageshadow="2"
     inkscape:zoom="0.6"
     inkscape:cx="400"
     inkscape:cy="300"
     inkscape:current-layer="layer1"
     inkscape:document-units="px"
     showgrid="false"
     width="900px"
     inkscape:window-width="1920"
     inkscape:window-height="1017"
     inkscape:window-x="1358"
     inkscape:window-y="-8"
     inkscape:window-maximized="1" />
  <metadata
     id="metadata3541">
    <rdf:RDF>
      <cc:Work
         rdf:about="">
        <dc:format>image/svg+xml</dc:format>
        <dc:type
           rdf:resource="http://purl.org/dc/dcmitype/StillImage" />
        <dc:title />
      </cc:Work>
    </rdf:RDF>
  </metadata>
  <g
     id="layer1"
     inkscape:label="Layer 1"
     inkscape:groupmode="layer"
     transform="translate(0,-409.99998)">
    <g
       style="fill-rule:evenodd"
       id="g348"
       transform="matrix(0.08999696,0,0,0.08999696,-37.48413,392.23209)">
      <path
         class="fil34"
         d="m 1259,1524 c 192,77 355,-63 342,-298 51,79 80,172 80,273 0,279 -226,505 -505,505 -279,0 -505,-226 -505,-505 0,-67 13,-130 36,-188 l 0,0 c 43,-130 126,-248 227,-364 156,-178 235,-362 206,-546 136,214 162,412 93,596 -65,171 -245,418 27,527 z"
         id="path350"
         style="fill:url(#linearGradient3448)"
         inkscape:connector-curvature="0" />
      <g
         id="g352"
         clip-path="url(#id9)">
        <g
           id="g354">
          <path
             id="path356"
             class="fil35"
             d="m 1185,479 c 81,208 24,387 -88,558 -198,304 -173,576 42,680 237,115 598,-39 463,-491 L 1286,521 1186,478 z"
             style="fill:url(#id22)"
             inkscape:connector-curvature="0" />
        </g>
      </g>
      <path
         class="fil12"
         d="m 1259,1524 c 192,77 355,-63 342,-298 51,79 80,172 80,273 0,279 -226,505 -505,505 -279,0 -505,-226 -505,-505 0,-67 13,-130 36,-188 l 0,0 c 43,-130 126,-248 227,-364 156,-178 235,-362 206,-546 136,214 162,412 93,596 -65,171 -245,418 27,527 z"
         id="path358"
         inkscape:connector-curvature="0"
         style="fill:none" />
      <path
         class="fil36"
         d="m 1334,790 c 18,127 1,240 -59,339 -97,159 -92,284 36,318 119,32 232,-63 220,-230 -10,-148 -84,-289 -196,-426 z"
         id="path360"
         style="fill:url(#id23)"
         inkscape:connector-curvature="0" />
      <g
         id="g362"
         clip-path="url(#id10)">
        <g
           id="g364">
          <path
             id="path366"
             class="fil37"
             d="m 1352,812 c 235,449 -68,654 -140,465 l -41,22 30,142 102,69 5,0 121,-29 72,-77 c 12,-8 0,-5 10,-10 l 42,-89 3,-5 43,-216 -86,-187 c -2,-7 0,-5 -3,-8 l -158,-78 z"
             style="fill:url(#id21)"
             inkscape:connector-curvature="0" />
          <path
             class="fil38"
             d="m 2920,706 c 192,77 355,-63 342,-298 51,79 80,172 80,273 0,279 -226,505 -505,505 -279,0 -505,-226 -505,-505 0,-67 13,-130 36,-188 l 0,0 c 43,-130 126,-248 227,-364 156,-178 235,-362 206,-546 136,214 162,412 93,596 -65,171 -245,418 27,527 z"
             id="path368"
             style="fill:url(#id20)"
             inkscape:connector-curvature="0" />
        </g>
      </g>
      <path
         class="fil12"
         d="m 1334,790 c 18,127 1,240 -59,339 -97,159 -92,284 36,318 119,32 232,-63 220,-230 -10,-148 -84,-289 -196,-426 z"
         id="path370"
         inkscape:connector-curvature="0"
         style="fill:none" />
    </g>
    <g
       style="fill-rule:evenodd"
       id="g372"
       transform="matrix(0.08999696,0,0,0.08999696,-37.48413,392.23209)">
      <path
         class="fil12 str0"
         d="m 2413,957 0,148 -352,0 c -20,3 -37,12 -51,28 -13,15 -20,33 -20,53 0,21 7,40 21,55 14,16 31,24 53,26 l 350,0 0,151 -344,0 c -22,1 -41,9 -56,24 -16,16 -23,34 -23,56 l 0,230 -154,0 0,-230 c 0,-30 6,-59 17,-85 11,-27 26,-50 45,-70 -19,-20 -34,-44 -45,-70 -11,-27 -17,-55 -17,-86 0,-32 6,-61 18,-89 12,-27 28,-51 49,-72 21,-21 45,-37 72,-50 27,-12 57,-18 89,-18 l 350,0 z m 61,159 157,0 0,306 c 0,20 4,40 12,58 8,18 18,34 32,48 13,13 29,24 48,32 18,8 38,12 58,12 20,0 40,-4 58,-12 18,-8 34,-18 48,-32 13,-13 24,-29 32,-48 8,-18 12,-38 12,-58 l 0,-306 157,0 0,306 c 0,42 -8,82 -24,119 -16,37 -38,70 -65,97 -28,28 -60,50 -97,65 -37,16 -77,24 -119,24 -42,0 -82,-8 -119,-24 -37,-16 -70,-38 -97,-65 -28,-28 -50,-60 -65,-97 -16,-37 -24,-77 -24,-119 l 0,-306 z m 1166,548 c -26,20 -55,36 -87,47 -32,11 -65,17 -100,17 -42,0 -82,-8 -119,-24 -37,-16 -70,-38 -97,-65 -28,-28 -50,-60 -65,-97 -16,-37 -24,-77 -24,-119 0,-42 8,-82 24,-119 16,-37 38,-70 65,-97 28,-28 60,-50 97,-65 37,-16 77,-24 119,-24 42,0 82,8 119,24 37,16 70,38 97,65 28,28 50,60 65,97 16,37 24,77 24,119 0,13 -1,26 -2,38 -2,12 -4,24 -6,35 l -427,0 c 13,23 31,41 54,55 23,14 48,21 76,21 16,0 32,-2 46,-7 15,-5 28,-12 40,-21 l 100,121 z m -187,-392 c -26,0 -50,6 -71,18 -21,12 -39,28 -53,48 l 247,0 c -14,-20 -31,-35 -53,-48 -21,-12 -45,-18 -71,-18 z m 524,455 -157,0 0,-771 157,0 0,771 z m 711,-614 -246,0 0,614 -157,0 0,-614 -247,0 0,-157 650,0 0,157 z m 516,308 c 0,-20 -4,-40 -12,-58 -8,-18 -18,-34 -32,-48 -13,-13 -29,-24 -48,-32 -18,-8 -38,-12 -58,-12 -20,0 -40,4 -58,12 -18,8 -34,18 -48,32 -13,13 -24,29 -32,48 -8,18 -12,38 -12,58 l 0,306 -157,0 0,-306 c 0,-42 8,-82 24,-119 16,-37 38,-70 65,-97 28,-28 60,-50 97,-65 37,-16 77,-24 119,-24 42,0 82,8 119,24 37,16 70,38 97,65 28,28 50,60 65,97 16,37 24,77 24,119 l -157,0 z m 524,-306 c 42,0 82,8 119,24 37,16 70,38 97,65 28,28 50,60 65,97 16,37 24,77 24,119 0,42 -8,82 -24,119 -16,37 -38,70 -65,97 -28,28 -60,50 -97,65 -37,16 -77,24 -119,24 -42,0 -82,-8 -119,-24 -37,-16 -70,-38 -97,-65 -28,-28 -50,-60 -65,-97 -16,-37 -24,-77 -24,-119 0,-42 8,-82 24,-119 16,-37 38,-70 65,-97 28,-28 60,-50 97,-65 37,-16 77,-24 119,-24 z m 0,455 c 20,0 40,-4 58,-12 18,-8 34,-18 48,-32 13,-13 24,-29 32,-48 8,-18 12,-38 12,-58 0,-20 -4,-40 -12,-58 -8,-18 -18,-34 -32,-48 -13,-13 -29,-24 -48,-32 -18,-8 -38,-12 -58,-12 -20,0 -40,4 -58,12 -18,8 -34,18 -48,32 -13,13 -24,29 -32,48 -8,18 -12,38 -12,58 0,20 4,40 12,58 8,18 18,34 32,48 13,13 29,24 48,32 18,8 38,12 58,12 z m 979,157 -157,0 0,-306 c 0,-20 -4,-40 -12,-58 -8,-18 -18,-34 -32,-48 -13,-13 -29,-24 -48,-32 -18,-8 -38,-12 -58,-12 -20,0 -40,4 -58,12 -18,8 -34,18 -48,32 -13,13 -24,29 -32,48 -8,18 -12,38 -12,58 l 0,306 -157,0 0,-306 c 0,-42 8,-82 24,-119 16,-37 38,-70 65,-97 28,-28 60,-50 97,-65 37,-16 77,-24 119,-24 42,0 82,8 119,24 37,16 70,38 97,65 28,28 50,60 65,97 16,37 24,77 24,119 l 0,306 z m 61,-612 0,-159 157,0 0,159 -157,0 z m 157,39 0,573 -157,0 0,-573 157,0 z m 669,319 c -5,27 -13,53 -25,78 -17,35 -39,65 -67,91 -28,26 -60,46 -95,61 -36,15 -74,23 -115,23 -42,0 -82,-8 -119,-24 -37,-16 -70,-38 -97,-65 -28,-28 -50,-60 -65,-97 -16,-37 -24,-77 -24,-119 0,-42 8,-82 24,-119 16,-37 38,-70 65,-97 28,-28 60,-50 97,-65 37,-16 77,-24 119,-24 41,0 79,8 115,23 36,15 68,35 95,61 28,26 50,56 67,91 12,25 20,51 25,78 l -163,0 c -2,-6 -5,-11 -8,-17 -9,-16 -19,-30 -32,-42 -13,-11 -28,-21 -45,-28 -17,-7 -35,-10 -54,-10 -20,0 -40,4 -58,12 -18,8 -34,18 -48,32 -13,13 -24,29 -32,48 -8,18 -12,38 -12,58 0,20 4,40 12,58 8,18 18,34 32,48 13,13 29,24 48,32 18,8 38,12 58,12 19,0 37,-3 54,-10 17,-7 32,-16 45,-28 13,-11 24,-25 32,-41 3,-6 6,-12 8,-18 l 162,0 z"
         id="path374"
         inkscape:connector-curvature="0"
         style="fill:none;stroke:#0098da;stroke-width:25.40940094" />
      <path
         id="path376"
         class="fil39"
         d="m 2413,957 0,148 -352,0 c -20,3 -37,12 -51,28 -13,15 -20,33 -20,53 0,21 7,40 21,55 14,16 31,24 53,26 l 350,0 0,151 -344,0 c -22,1 -41,9 -56,24 -16,16 -23,34 -23,56 l 0,230 -154,0 0,-230 c 0,-30 6,-59 17,-85 11,-27 26,-50 45,-70 -19,-20 -34,-44 -45,-70 -11,-27 -17,-55 -17,-86 0,-32 6,-61 18,-89 12,-27 28,-51 49,-72 21,-21 45,-37 72,-50 27,-12 57,-18 89,-18 l 350,0 z m 61,159 157,0 0,306 c 0,20 4,40 12,58 8,18 18,34 32,48 13,13 29,24 48,32 18,8 38,12 58,12 20,0 40,-4 58,-12 18,-8 34,-18 48,-32 13,-13 24,-29 32,-48 8,-18 12,-38 12,-58 l 0,-306 157,0 0,306 c 0,42 -8,82 -24,119 -16,37 -38,70 -65,97 -28,28 -60,50 -97,65 -37,16 -77,24 -119,24 -42,0 -82,-8 -119,-24 -37,-16 -70,-38 -97,-65 -28,-28 -50,-60 -65,-97 -16,-37 -24,-77 -24,-119 l 0,-306 z m 1166,548 c -26,20 -55,36 -87,47 -32,11 -65,17 -100,17 -42,0 -82,-8 -119,-24 -37,-16 -70,-38 -97,-65 -28,-28 -50,-60 -65,-97 -16,-37 -24,-77 -24,-119 0,-42 8,-82 24,-119 16,-37 38,-70 65,-97 28,-28 60,-50 97,-65 37,-16 77,-24 119,-24 42,0 82,8 119,24 37,16 70,38 97,65 28,28 50,60 65,97 16,37 24,77 24,119 0,13 -1,26 -2,38 -2,12 -4,24 -6,35 l -427,0 c 13,23 31,41 54,55 23,14 48,21 76,21 16,0 32,-2 46,-7 15,-5 28,-12 40,-21 l 100,121 z m -187,-392 c -26,0 -50,6 -71,18 -21,12 -39,28 -53,48 l 247,0 c -14,-20 -31,-35 -53,-48 -21,-12 -45,-18 -71,-18 z m 524,455 -157,0 0,-771 157,0 0,771 z m 711,-614 -246,0 0,614 -157,0 0,-614 -247,0 0,-157 650,0 0,157 z m 516,308 c 0,-20 -4,-40 -12,-58 -8,-18 -18,-34 -32,-48 -13,-13 -29,-24 -48,-32 -18,-8 -38,-12 -58,-12 -20,0 -40,4 -58,12 -18,8 -34,18 -48,32 -13,13 -24,29 -32,48 -8,18 -12,38 -12,58 l 0,306 -157,0 0,-306 c 0,-42 8,-82 24,-119 16,-37 38,-70 65,-97 28,-28 60,-50 97,-65 37,-16 77,-24 119,-24 42,0 82,8 119,24 37,16 70,38 97,65 28,28 50,60 65,97 16,37 24,77 24,119 l -157,0 z m 524,-306 c 42,0 82,8 119,24 37,16 70,38 97,65 28,28 50,60 65,97 16,37 24,77 24,119 0,42 -8,82 -24,119 -16,37 -38,70 -65,97 -28,28 -60,50 -97,65 -37,16 -77,24 -119,24 -42,0 -82,-8 -119,-24 -37,-16 -70,-38 -97,-65 -28,-28 -50,-60 -65,-97 -16,-37 -24,-77 -24,-119 0,-42 8,-82 24,-119 16,-37 38,-70 65,-97 28,-28 60,-50 97,-65 37,-16 77,-24 119,-24 z m 0,455 c 20,0 40,-4 58,-12 18,-8 34,-18 48,-32 13,-13 24,-29 32,-48 8,-18 12,-38 12,-58 0,-20 -4,-40 -12,-58 -8,-18 -18,-34 -32,-48 -13,-13 -29,-24 -48,-32 -18,-8 -38,-12 -58,-12 -20,0 -40,4 -58,12 -18,8 -34,18 -48,32 -13,13 -24,29 -32,48 -8,18 -12,38 -12,58 0,20 4,40 12,58 8,18 18,34 32,48 13,13 29,24 48,32 18,8 38,12 58,12 z m 979,157 -157,0 0,-306 c 0,-20 -4,-40 -12,-58 -8,-18 -18,-34 -32,-48 -13,-13 -29,-24 -48,-32 -18,-8 -38,-12 -58,-12 -20,0 -40,4 -58,12 -18,8 -34,18 -48,32 -13,13 -24,29 -32,48 -8,18 -12,38 -12,58 l 0,306 -157,0 0,-306 c 0,-42 8,-82 24,-119 16,-37 38,-70 65,-97 28,-28 60,-50 97,-65 37,-16 77,-24 119,-24 42,0 82,8 119,24 37,16 70,38 97,65 28,28 50,60 65,97 16,37 24,77 24,119 l 0,306 z m 61,-612 0,-159 157,0 0,159 -157,0 z m 157,39 0,573 -157,0 0,-573 157,0 z m 669,319 c -5,27 -13,53 -25,78 -17,35 -39,65 -67,91 -28,26 -60,46 -95,61 -36,15 -74,23 -115,23 -42,0 -82,-8 -119,-24 -37,-16 -70,-38 -97,-65 -28,-28 -50,-60 -65,-97 -16,-37 -24,-77 -24,-119 0,-42 8,-82 24,-119 16,-37 38,-70 65,-97 28,-28 60,-50 97,-65 37,-16 77,-24 119,-24 41,0 79,8 115,23 36,15 68,35 95,61 28,26 50,56 67,91 12,25 20,51 25,78 l -163,0 c -2,-6 -5,-11 -8,-17 -9,-16 -19,-30 -32,-42 -13,-11 -28,-21 -45,-28 -17,-7 -35,-10 -54,-10 -20,0 -40,4 -58,12 -18,8 -34,18 -48,32 -13,13 -24,29 -32,48 -8,18 -12,38 -12,58 0,20 4,40 12,58 8,18 18,34 32,48 13,13 29,24 48,32 18,8 38,12 58,12 19,0 37,-3 54,-10 17,-7 32,-16 45,-28 13,-11 24,-25 32,-41 3,-6 6,-12 8,-18 l 162,0 z"
         inkscape:connector-curvature="0"
         style="fill:#2957a4" />
    </g>
  </g>
</svg>
