<?xml version="1.0" encoding="UTF-8" standalone="no"?>
<!-- Created with Inkscape (http://www.inkscape.org/) -->

<svg
   xmlns:dc="http://purl.org/dc/elements/1.1/"
   xmlns:cc="http://creativecommons.org/ns#"
   xmlns:rdf="http://www.w3.org/1999/02/22-rdf-syntax-ns#"
   xmlns:svg="http://www.w3.org/2000/svg"
   xmlns="http://www.w3.org/2000/svg"
   xmlns:xlink="http://www.w3.org/1999/xlink"
   xmlns:sodipodi="http://sodipodi.sourceforge.net/DTD/sodipodi-0.dtd"
   xmlns:inkscape="http://www.inkscape.org/namespaces/inkscape"
   width="670"
   height="58"
   id="svg3536"
   version="1.1"
   inkscape:version="0.48.5 r10040"
   sodipodi:docname="Fueltronic Logo no subtitle.svg">
  <defs
     id="defs3538">
    <linearGradient
       id="id19"
       gradientUnits="userSpaceOnUse"
       x1="1938.8101"
       y1="1652.35"
       x2="412.75601"
       y2="753.06299">
      <stop
         offset="0"
         style="stop-color:#2957A4"
         id="stop90" />
      <stop
         offset="0.4"
         style="stop-color:#006CB5"
         id="stop92" />
      <stop
         offset="0.729412"
         style="stop-color:#00AFEF"
         id="stop94" />
      <stop
         offset="1"
         style="stop-color:#00AFEF"
         id="stop96" />
    </linearGradient>
    <clipPath
       id="id9">
      <path
         inkscape:connector-curvature="0"
         d="m 1259,1524 c 192,77 355,-63 342,-298 51,79 80,172 80,273 0,279 -226,505 -505,505 -279,0 -505,-226 -505,-505 0,-67 13,-130 36,-188 l 0,0 c 43,-130 126,-248 227,-364 156,-178 235,-362 206,-546 136,214 162,412 93,596 -65,171 -245,418 27,527 z"
         id="path36" />
    </clipPath>
    <linearGradient
       id="id22"
       gradientUnits="userSpaceOnUse"
       x1="878.84302"
       y1="824.98401"
       x2="1755.17"
       y2="1486.37">
      <stop
         offset="0"
         style="stop-color:#2957A4"
         id="stop109" />
      <stop
         offset="0.4"
         style="stop-color:#006CB5"
         id="stop111" />
      <stop
         offset="0.858824"
         style="stop-color:#00AFEF"
         id="stop113" />
      <stop
         offset="1"
         style="stop-color:#00AFEF"
         id="stop115" />
    </linearGradient>
    <linearGradient
       id="id23"
       gradientUnits="userSpaceOnUse"
       x1="1268.34"
       y1="1365.9301"
       x2="1470.96"
       y2="876.26398">
      <stop
         offset="0"
         style="stop-color:#0082C6"
         id="stop118" />
      <stop
         offset="0.34902"
         style="stop-color:#0082C6"
         id="stop120" />
      <stop
         offset="0.760784"
         style="stop-color:#00AFEF"
         id="stop122" />
      <stop
         offset="1"
         style="stop-color:#00AFEF"
         id="stop124" />
    </linearGradient>
    <clipPath
       id="id10">
      <path
         inkscape:connector-curvature="0"
         d="m 1334,790 c 18,127 1,240 -59,339 -97,159 -92,284 36,318 119,32 232,-63 220,-230 -10,-148 -84,-289 -196,-426 z"
         id="path39" />
    </clipPath>
    <linearGradient
       id="id21"
       gradientUnits="userSpaceOnUse"
       x1="1261.76"
       y1="1443.1801"
       x2="1509.51"
       y2="878.84302">
      <stop
         offset="0"
         style="stop-color:#2957A4"
         id="stop100" />
      <stop
         offset="0.4"
         style="stop-color:#006CB5"
         id="stop102" />
      <stop
         offset="0.729412"
         style="stop-color:#00AFEF"
         id="stop104" />
      <stop
         offset="1"
         style="stop-color:#0098DA"
         id="stop106" />
    </linearGradient>
    <linearGradient
       id="id20"
       gradientUnits="userSpaceOnUse"
       xlink:href="#id19"
       x1="3446.0801"
       y1="744.38599"
       x2="2226.8301"
       y2="25.8976" />
    <linearGradient
       id="linearGradient3507"
       gradientUnits="userSpaceOnUse"
       x1="1938.8101"
       y1="1652.35"
       x2="412.75601"
       y2="753.06299">
      <stop
         offset="0"
         style="stop-color:#2957A4"
         id="stop3509" />
      <stop
         offset="0.4"
         style="stop-color:#006CB5"
         id="stop3511" />
      <stop
         offset="0.729412"
         style="stop-color:#00AFEF"
         id="stop3513" />
      <stop
         offset="1"
         style="stop-color:#00AFEF"
         id="stop3515" />
    </linearGradient>
  </defs>
  <sodipodi:namedview
     id="base"
     pagecolor="#ffffff"
     bordercolor="#666666"
     borderopacity="1.0"
     inkscape:pageopacity="0.0"
     inkscape:pageshadow="2"
     inkscape:zoom="0.6"
     inkscape:cx="400"
     inkscape:cy="300"
     inkscape:current-layer="layer1"
     inkscape:document-units="px"
     showgrid="false"
     width="900px"
     inkscape:window-width="1920"
     inkscape:window-height="1017"
     inkscape:window-x="1358"
     inkscape:window-y="-8"
     inkscape:window-maximized="1" />
  <metadata
     id="metadata3541">
    <rdf:RDF>
      <cc:Work
         rdf:about="">
        <dc:format>image/svg+xml</dc:format>
        <dc:type
           rdf:resource="http://purl.org/dc/dcmitype/StillImage" />
        <dc:title></dc:title>
      </cc:Work>
    </rdf:RDF>
  </metadata>
  <g
     id="layer1"
     inkscape:label="Layer 1"
     inkscape:groupmode="layer"
     transform="translate(0,-541.99998)">
    <g
       style="fill-rule:evenodd"
       id="_360524048"
       transform="matrix(0.08999696,0,0,0.08957563,-89.150797,398.1034)">
      <path
         class="fil40"
         d="m 1834,2018 0,-186 116,0 0,20 -96,0 0,61 93,0 0,19 -93,0 0,86 -20,0 z m 307,-132 0,132 -19,0 0,-18 c -3,7 -8,12 -15,15 -7,3 -16,5 -28,5 -17,0 -29,-3 -36,-10 -7,-7 -10,-19 -10,-37 l 0,-86 19,0 0,82 c 0,14 2,23 6,27 4,4 12,6 24,6 14,0 24,-3 30,-9 6,-6 9,-16 9,-30 l 0,-77 20,0 z m 114,53 74,0 0,-5 c 0,-12 -2,-21 -7,-25 -4,-4 -13,-7 -26,-7 l -9,0 c -13,0 -22,2 -26,7 -4,4 -6,13 -6,25 l 0,5 z m 33,80 c -20,0 -33,-4 -41,-11 -8,-8 -12,-21 -12,-40 l 0,-31 c 0,-19 4,-33 12,-40 8,-8 21,-12 41,-12 l 9,0 c 20,0 33,4 41,12 8,8 12,21 12,40 l 0,20 -95,0 c 0,1 0,3 0,4 0,2 0,4 0,7 0,14 2,23 6,27 4,5 13,7 26,7 l 9,0 c 12,0 20,-2 24,-5 5,-3 7,-9 8,-18 l 20,0 c -1,14 -6,25 -14,31 -8,6 -21,10 -39,10 l -9,0 z m 156,-2 0,-186 19,0 0,186 -19,0 z m 316,0 0,-186 34,0 64,166 63,-166 34,0 0,186 -20,0 0,-169 -64,169 -25,0 -64,-169 0,169 -20,0 z m 383,-33 0,-14 c 0,-6 -3,-11 -10,-14 -6,-3 -17,-4 -30,-4 -13,0 -21,2 -26,5 -4,3 -6,9 -6,18 0,10 2,17 7,21 5,3 14,5 27,5 12,0 22,-1 28,-4 6,-3 10,-7 10,-13 z m 1,20 c -3,6 -8,9 -14,12 -7,2 -16,4 -27,4 -21,0 -34,-3 -41,-9 -7,-6 -10,-17 -10,-33 0,-9 1,-16 2,-22 2,-5 4,-9 8,-13 3,-3 8,-5 14,-6 6,-1 15,-2 26,-2 12,0 21,1 27,3 6,2 11,5 14,10 l 0,-23 c 0,-11 -2,-18 -6,-21 -4,-3 -15,-5 -31,-5 -12,0 -20,1 -24,4 -4,3 -6,7 -6,14 l -19,0 0,-3 c 0,-11 4,-19 11,-24 7,-5 20,-7 38,-7 14,0 24,1 32,2 7,1 13,3 16,6 4,3 7,7 8,11 2,4 2,12 2,23 l 0,92 -18,0 -1,-14 z m 117,14 0,-132 19,0 0,18 c 3,-7 8,-12 15,-15 7,-3 16,-5 28,-5 17,0 29,4 36,10 7,7 10,19 10,37 l 0,86 -20,0 0,-82 c 0,-14 -2,-23 -6,-27 -4,-4 -12,-6 -24,-6 -14,0 -24,3 -30,9 -6,6 -10,16 -10,30 l 0,77 -19,0 z m 292,-33 0,-14 c 0,-6 -3,-11 -10,-14 -6,-3 -17,-4 -30,-4 -13,0 -21,2 -26,5 -4,3 -6,9 -6,18 0,10 2,17 7,21 5,3 14,5 27,5 12,0 22,-1 28,-4 6,-3 10,-7 10,-13 z m 1,20 c -3,6 -8,9 -14,12 -7,2 -16,4 -27,4 -21,0 -34,-3 -41,-9 -7,-6 -10,-17 -10,-33 0,-9 1,-16 2,-22 2,-5 4,-9 8,-13 3,-3 8,-5 14,-6 6,-1 15,-2 26,-2 12,0 21,1 27,3 6,2 11,5 14,10 l 0,-23 c 0,-11 -2,-18 -6,-21 -4,-3 -15,-5 -31,-5 -12,0 -20,1 -24,4 -4,3 -6,7 -6,14 l -19,0 0,-3 c 0,-11 4,-19 11,-24 7,-5 20,-7 38,-7 14,0 24,1 32,2 7,1 13,3 16,6 4,3 7,7 8,11 2,4 2,12 2,23 l 0,92 -18,0 -1,-14 z m 207,-41 0,-22 c 0,-14 -3,-24 -10,-30 -6,-6 -17,-9 -31,-9 -13,0 -21,2 -26,7 -4,5 -6,15 -6,32 l 0,23 c 0,16 2,27 6,32 4,5 13,7 26,7 14,0 24,-3 31,-9 6,-6 10,-16 10,-30 z m 19,-77 0,130 c 0,19 -4,33 -11,40 -8,8 -21,11 -40,11 l -9,0 c -17,0 -30,-3 -38,-9 -8,-6 -12,-17 -13,-31 l 20,0 c 1,8 3,14 8,18 4,3 12,5 24,5 l 9,0 c 12,0 20,-2 25,-6 5,-4 7,-10 7,-18 l 0,-27 c -4,7 -9,12 -15,16 -6,3 -15,5 -26,5 -19,0 -32,-4 -40,-12 -8,-8 -12,-21 -12,-40 l 0,-31 c 0,-19 4,-33 12,-40 8,-8 21,-12 40,-12 11,0 20,2 27,5 7,4 12,9 15,17 l 0,-20 19,0 z m 114,53 74,0 0,-5 c 0,-12 -2,-21 -7,-25 -4,-4 -13,-7 -26,-7 l -9,0 c -13,0 -22,2 -26,7 -4,4 -6,13 -6,25 l 0,5 z m 33,80 c -20,0 -33,-4 -41,-11 -8,-8 -12,-21 -12,-40 l 0,-31 c 0,-19 4,-33 12,-40 8,-8 21,-12 41,-12 l 9,0 c 20,0 33,4 41,12 8,8 12,21 12,40 l 0,20 -95,0 c 0,1 0,3 0,4 0,2 0,4 0,7 0,14 2,23 6,27 4,5 13,7 26,7 l 9,0 c 12,0 20,-2 24,-5 5,-3 7,-9 8,-18 l 20,0 c -1,14 -6,25 -14,31 -8,6 -21,10 -39,10 l -9,0 z m 159,-2 0,-132 19,0 0,18 c 3,-7 7,-12 14,-15 6,-3 15,-5 26,-5 11,0 20,2 26,5 6,3 11,9 14,17 4,-8 9,-13 15,-17 6,-3 15,-5 25,-5 17,0 29,3 36,10 7,7 10,19 10,37 l 0,86 -20,0 0,-80 c 0,-15 -2,-24 -6,-29 -4,-5 -11,-7 -22,-7 -12,0 -21,3 -27,9 -6,6 -8,16 -8,30 l 0,77 -19,0 0,-89 c 0,-10 -2,-17 -6,-21 -4,-4 -11,-6 -22,-6 -13,0 -22,3 -28,10 -6,6 -9,16 -9,30 l 0,77 -19,0 z m 297,-79 74,0 0,-5 c 0,-12 -2,-21 -7,-25 -4,-4 -13,-7 -26,-7 l -9,0 c -13,0 -22,2 -26,7 -4,4 -6,13 -6,25 l 0,5 z m 33,80 c -20,0 -33,-4 -41,-11 -8,-8 -12,-21 -12,-40 l 0,-31 c 0,-19 4,-33 12,-40 8,-8 21,-12 41,-12 l 9,0 c 20,0 33,4 41,12 8,8 12,21 12,40 l 0,20 -95,0 c 0,1 0,3 0,4 0,2 0,4 0,7 0,14 2,23 6,27 4,5 13,7 26,7 l 9,0 c 12,0 20,-2 24,-5 5,-3 7,-9 8,-18 l 20,0 c -1,14 -6,25 -14,31 -8,6 -21,10 -39,10 l -9,0 z m 156,-2 0,-132 19,0 0,18 c 3,-7 8,-12 15,-15 7,-3 16,-5 28,-5 17,0 29,4 36,10 7,7 10,19 10,37 l 0,86 -20,0 0,-82 c 0,-14 -2,-23 -6,-27 -4,-4 -12,-6 -24,-6 -14,0 -24,3 -30,9 -6,6 -10,16 -10,30 l 0,77 -19,0 z m 193,-115 0,-17 16,0 0,-30 20,0 0,30 65,0 0,17 -65,0 0,72 c 0,10 2,17 5,21 3,4 10,6 19,6 9,0 16,-2 19,-5 3,-4 5,-11 5,-21 l 0,-4 20,0 0,1 c 0,18 -3,31 -9,37 -6,6 -19,10 -38,10 -15,0 -26,-3 -31,-10 -6,-7 -9,-19 -9,-37 l 0,-70 -16,0 z m 391,54 21,0 0,4 c 0,11 1,19 3,25 2,5 4,9 8,11 3,2 8,3 14,4 6,1 19,1 39,1 11,0 19,-1 25,-2 6,-1 10,-4 13,-7 2,-2 3,-5 4,-8 1,-4 1,-9 1,-16 0,-14 -1,-23 -4,-26 -3,-4 -8,-6 -17,-6 l -57,-5 c -17,-1 -29,-6 -36,-13 -7,-7 -10,-20 -10,-37 0,-11 1,-20 3,-26 2,-7 6,-12 10,-16 4,-3 9,-6 16,-7 7,-1 19,-2 36,-2 l 7,0 c 19,0 33,1 40,3 8,2 14,5 20,10 4,3 6,7 8,13 2,6 3,12 3,21 0,2 0,4 0,6 0,1 0,2 0,3 l -21,0 0,-5 c 0,-7 0,-12 -1,-16 -1,-4 -2,-6 -4,-8 -3,-3 -7,-4 -14,-5 -7,-1 -19,-2 -38,-2 -19,0 -31,2 -36,6 -5,4 -7,13 -7,26 0,11 2,18 5,22 3,4 9,6 19,7 l 58,5 c 15,1 26,6 32,13 6,7 9,19 9,36 0,12 -1,21 -2,27 -2,6 -4,11 -8,15 -5,5 -11,9 -18,11 -8,2 -22,3 -42,3 l -9,0 c -17,0 -29,-1 -36,-3 -7,-2 -13,-5 -18,-9 -5,-4 -8,-9 -10,-16 -2,-7 -3,-16 -3,-26 l 0,-9 z m 230,-71 20,0 39,113 39,-113 19,0 -50,143 c -5,16 -11,26 -17,32 -6,6 -13,8 -23,8 -1,0 -3,0 -5,0 -2,0 -4,0 -6,-1 l 0,-17 c 1,0 1,0 2,0 1,0 2,0 4,0 6,0 11,-1 14,-4 3,-3 6,-8 9,-16 l 5,-14 -6,0 -46,-132 z m 193,93 20,0 0,3 c 0,8 3,14 8,17 5,3 15,5 30,5 17,0 27,-2 31,-5 4,-3 6,-9 6,-18 0,-9 -2,-14 -5,-17 -3,-3 -11,-5 -24,-5 -5,0 -11,-1 -19,-1 -18,0 -28,-2 -32,-4 -5,-3 -9,-6 -11,-11 -2,-5 -3,-12 -3,-21 0,-15 4,-24 11,-30 7,-5 24,-8 49,-8 20,0 33,2 40,7 7,5 10,14 10,26 l -20,0 0,-1 c 0,-6 -3,-10 -8,-12 -5,-2 -15,-3 -30,-3 -15,0 -24,1 -28,4 -4,3 -6,8 -6,17 0,5 0,9 1,11 1,2 2,4 4,5 4,2 13,3 26,4 3,0 6,0 8,0 11,0 20,1 26,2 6,1 11,2 13,3 6,3 10,7 12,12 2,5 4,12 4,22 0,10 -1,17 -4,22 -2,5 -7,9 -13,13 -3,2 -7,3 -14,4 -6,1 -15,1 -27,1 -23,0 -39,-3 -46,-8 -8,-5 -11,-15 -11,-29 l 0,-3 z m 200,-76 0,-17 16,0 0,-30 20,0 0,30 65,0 0,17 -65,0 0,72 c 0,10 2,17 5,21 3,4 10,6 19,6 9,0 16,-2 19,-5 3,-4 5,-11 5,-21 l 0,-4 20,0 0,1 c 0,18 -3,31 -9,37 -6,6 -19,10 -38,10 -15,0 -26,-3 -31,-10 -6,-7 -9,-19 -9,-37 l 0,-70 -16,0 z m 213,36 74,0 0,-5 c 0,-12 -2,-21 -7,-25 -4,-4 -13,-7 -26,-7 l -9,0 c -13,0 -22,2 -26,7 -4,4 -6,13 -6,25 l 0,5 z m 33,80 c -20,0 -33,-4 -41,-11 -8,-8 -12,-21 -12,-40 l 0,-31 c 0,-19 4,-33 12,-40 8,-8 21,-12 41,-12 l 9,0 c 20,0 33,4 41,12 8,8 12,21 12,40 l 0,20 -95,0 c 0,1 0,3 0,4 0,2 0,4 0,7 0,14 2,23 6,27 4,5 13,7 26,7 l 9,0 c 12,0 20,-2 24,-5 5,-3 7,-9 8,-18 l 20,0 c -1,14 -6,25 -14,31 -8,6 -21,10 -39,10 l -9,0 z m 159,-2 0,-132 19,0 0,18 c 3,-7 7,-12 14,-15 6,-3 15,-5 26,-5 11,0 20,2 26,5 6,3 11,9 14,17 4,-8 9,-13 15,-17 6,-3 15,-5 25,-5 17,0 29,3 36,10 7,7 10,19 10,37 l 0,86 -20,0 0,-80 c 0,-15 -2,-24 -6,-29 -4,-5 -11,-7 -22,-7 -12,0 -21,3 -27,9 -6,6 -8,16 -8,30 l 0,77 -19,0 0,-89 c 0,-10 -2,-17 -6,-21 -4,-4 -11,-6 -22,-6 -13,0 -22,3 -28,10 -6,6 -9,16 -9,30 l 0,77 -20,0 z"
         id="path379"
         inkscape:connector-curvature="0"
         style="fill:#373435;fill-rule:nonzero" />
      <path
         class="fil40"
         d="m 6660,1894 c 0,-24 3,-40 10,-50 7,-9 18,-14 35,-14 l 8,0 0,19 -6,0 c -10,0 -17,3 -21,8 -3,5 -5,18 -5,37 l 0,62 c 0,20 2,32 5,37 3,5 10,8 21,8 l 6,0 0,19 -8,0 c -17,0 -29,-5 -35,-14 -7,-9 -10,-26 -10,-50 l 0,-63 z m 145,125 0,-186 116,0 0,20 -96,0 0,61 93,0 0,19 -93,0 0,86 -20,0 z m 211,0 0,-186 34,0 64,166 63,-166 34,0 0,186 -20,0 0,-169 -64,169 -25,0 -64,-169 0,169 -20,0 z m 294,-61 21,0 0,4 c 0,11 1,19 3,25 2,5 4,9 8,11 3,2 8,3 14,4 6,1 19,1 39,1 11,0 19,-1 25,-2 6,-1 10,-4 13,-7 2,-2 3,-5 4,-8 1,-4 1,-9 1,-16 0,-14 -1,-23 -4,-26 -3,-4 -8,-6 -17,-6 l -57,-5 c -17,-1 -29,-6 -36,-13 -7,-7 -10,-20 -10,-37 0,-11 1,-20 3,-26 2,-7 6,-12 10,-16 4,-3 9,-6 16,-7 7,-1 19,-2 36,-2 l 7,0 c 19,0 33,1 40,3 8,2 14,5 20,10 4,3 6,7 8,13 2,6 3,12 3,21 0,2 0,4 0,6 0,1 0,2 0,3 l -21,0 0,-5 c 0,-7 0,-12 -1,-16 -1,-4 -2,-6 -4,-8 -3,-3 -7,-4 -14,-5 -7,-1 -19,-2 -38,-2 -19,0 -31,2 -36,6 -5,4 -7,13 -7,26 0,11 2,18 5,22 3,4 9,6 19,7 l 58,5 c 15,1 26,6 32,13 6,7 9,19 9,36 0,12 -1,21 -2,27 -2,6 -4,11 -8,15 -5,5 -11,9 -18,11 -8,2 -22,3 -42,3 l -9,0 c -17,0 -29,-1 -36,-3 -7,-2 -13,-5 -18,-9 -5,-4 -8,-9 -10,-16 -2,-7 -3,-16 -3,-26 l 0,-9 z m 288,-64 0,63 c 0,24 -3,40 -10,50 -7,9 -18,14 -35,14 l -8,0 0,-19 6,0 c 10,0 17,-3 21,-8 3,-5 5,-18 5,-37 l 0,-62 c 0,-20 -2,-32 -5,-37 -3,-5 -10,-8 -21,-8 l -6,0 0,-19 8,0 c 17,0 28,5 35,14 7,9 10,26 10,50 z"
         id="path381"
         inkscape:connector-curvature="0"
         style="fill:#373435;fill-rule:nonzero" />
    </g>
  </g>
</svg>
